<svg width="49" height="43" viewBox="0 0 49 43" fill="none" xmlns="http://www.w3.org/2000/svg">
<g opacity="0.9" filter="url(#filter0_d)">
<mask id="mask0" mask-type="alpha" maskUnits="userSpaceOnUse" x="4" y="0" width="41" height="35">
<path d="M34.1891 12.6149L26.0319 0.759061C25.678 0.25302 25.0821 0 24.4861 0C23.8902 0 23.2942 0.25302 22.9403 0.777134L14.7831 12.6149H5.86237C4.83807 12.6149 4 13.4282 4 14.4222C4 14.5848 4.01862 14.7475 4.07449 14.9101L8.80492 31.6637C9.23327 33.1818 10.6673 34.3023 12.3807 34.3023H36.5915C38.3049 34.3023 39.739 33.1818 40.1859 31.6637L44.9163 14.9101L44.9722 14.4222C44.9722 13.4282 44.1342 12.6149 43.1098 12.6149H34.1891ZM18.899 12.6149L24.4861 4.6628L30.0732 12.6149H18.899ZM24.4861 27.0732C22.4375 27.0732 20.7614 25.4466 20.7614 23.4586C20.7614 21.4706 22.4375 19.844 24.4861 19.844C26.5347 19.844 28.2109 21.4706 28.2109 23.4586C28.2109 25.4466 26.5347 27.0732 24.4861 27.0732Z" fill="url(#paint0_linear)"/>
</mask>
<g mask="url(#mask0)">
<rect x="16.6373" y="-56.9091" width="27.6324" height="180.087" fill="#C98A8B"/>
<rect x="4.25041" y="-64.6263" width="27.6324" height="180.087" fill="#DAA75E"/>
<rect x="-10.0423" y="-66.4376" width="27.6324" height="180.087" fill="#7FA1C5"/>
</g>
</g>
<defs>
<filter id="filter0_d" x="0" y="0" width="48.2697" height="42.3023" filterUnits="userSpaceOnUse" color-interpolation-filters="sRGB">
<feFlood flood-opacity="0" result="BackgroundImageFix"/>
<feColorMatrix in="SourceAlpha" type="matrix" values="0 0 0 0 0 0 0 0 0 0 0 0 0 0 0 0 0 0 127 0"/>
<feOffset dy="4"/>
<feGaussianBlur stdDeviation="2"/>
<feColorMatrix type="matrix" values="0 0 0 0 0 0 0 0 0 0 0 0 0 0 0 0 0 0 0.25 0"/>
<feBlend mode="normal" in2="BackgroundImageFix" result="effect1_dropShadow"/>
<feBlend mode="normal" in="SourceGraphic" in2="effect1_dropShadow" result="shape"/>
</filter>
<linearGradient id="paint0_linear" x1="-2.14583" y1="7.54651" x2="47.8062" y2="34.1096" gradientUnits="userSpaceOnUse">
<stop offset="0.265625" stop-color="#7FA1C5"/>
<stop offset="0.526042" stop-color="#DDA960"/>
<stop offset="0.859375" stop-color="#CC8B8C"/>
</linearGradient>
</defs>
</svg>
