<svg width="170" height="48" viewBox="0 0 170 48" fill="none" xmlns="http://www.w3.org/2000/svg">
<g opacity="0.8" filter="url(#filter0_d)">
<path d="M29.6191 33H24.4688L26.3672 22.0312H16.4355L14.5195 33H9.36914L13.8164 7.40625H18.9668L17.1562 17.7773H27.1055L28.8984 7.40625H34.0488L29.6191 33ZM44.9121 33C44.7598 32.5195 44.6953 31.9453 44.7188 31.2773C43.2891 32.707 41.6719 33.3984 39.8672 33.3516C38.2031 33.3281 36.8203 32.7891 35.7188 31.7344C34.6289 30.668 34.1191 29.3555 34.1895 27.7969C34.2715 25.7227 35.1387 24.1348 36.791 23.0332C38.4551 21.9199 40.6816 21.3633 43.4707 21.3633L45.791 21.3984L46.0371 20.2559C46.1074 19.8691 46.125 19.5 46.0898 19.1484C46.0312 18.5977 45.8203 18.1699 45.457 17.8652C45.1055 17.5488 44.6367 17.3848 44.0508 17.373C43.2773 17.3496 42.6211 17.543 42.082 17.9531C41.543 18.3516 41.1973 18.9316 41.0449 19.6934L36.0703 19.7109C36.1523 17.8945 36.9844 16.4238 38.5664 15.2988C40.1602 14.1621 42.123 13.6055 44.4551 13.6289C46.6113 13.6758 48.2988 14.3203 49.5176 15.5625C50.7363 16.793 51.2461 18.3809 51.0469 20.3262L49.5879 29.4316L49.5 30.5566C49.4766 31.3887 49.5762 32.0918 49.7988 32.666L49.7812 33H44.9121ZM41.0977 29.502C42.5273 29.5488 43.7754 28.9277 44.8418 27.6387L45.457 24.3516L43.7344 24.334C41.9062 24.3809 40.5879 24.9375 39.7793 26.0039C39.4863 26.3906 39.3047 26.8652 39.2344 27.4277C39.1406 28.0605 39.2695 28.5645 39.6211 28.9395C39.9844 29.3027 40.4766 29.4902 41.0977 29.502ZM65.8477 18.7441C65.168 18.627 64.6113 18.5684 64.1777 18.5684C62.4082 18.5215 61.0078 19.1836 59.9766 20.5547L57.7793 33H52.8223L56.127 13.9805L60.7852 13.9629L60.3281 16.2832C61.5234 14.4902 63 13.5938 64.7578 13.5938C65.25 13.5938 65.8242 13.6758 66.4805 13.8398L65.8477 18.7441ZM76.0078 13.6289C77.6836 13.6523 79.125 14.0859 80.332 14.9297C81.5508 15.7617 82.4414 16.916 83.0039 18.3926C83.5781 19.8574 83.7832 21.4863 83.6191 23.2793C83.3496 26.3027 82.2949 28.752 80.4551 30.627C78.627 32.4902 76.3652 33.3984 73.6699 33.3516C72.0176 33.3281 70.5879 32.9062 69.3809 32.0859C68.1738 31.2539 67.2832 30.1055 66.709 28.6406C66.1348 27.1758 65.9297 25.5586 66.0938 23.7891C66.3984 20.6484 67.4648 18.1523 69.293 16.3008C71.1211 14.4492 73.3594 13.5586 76.0078 13.6289ZM70.998 25.5996C71.0215 26.7246 71.2852 27.6152 71.7891 28.2715C72.293 28.916 73.002 29.25 73.916 29.2734C75.4395 29.3203 76.6348 28.623 77.502 27.1816C78.3691 25.7285 78.7734 23.8242 78.7148 21.4688C78.668 20.3438 78.3926 19.4473 77.8887 18.7793C77.3965 18.0996 76.6875 17.748 75.7617 17.7246C74.2852 17.6777 73.1016 18.375 72.2109 19.8164C71.332 21.2461 70.9277 23.1738 70.998 25.5996ZM110.966 28.32C110.966 26.952 112.334 26.088 114.386 26.088C115.358 26.088 116.33 26.232 117.266 26.484C117.266 26.736 117.266 26.952 117.266 27.132C117.266 29.256 116.51 30.408 114.314 30.408C112.406 30.408 110.966 29.796 110.966 28.32ZM121.658 4.812H116.51C116.654 5.532 116.762 6.648 116.762 7.188C116.762 7.944 116.798 9.42 116.798 11.184C115.97 11.22 115.106 11.22 114.278 11.22C112.118 11.22 110.03 11.112 107.978 10.896V15.18C110.102 15.324 112.154 15.396 114.278 15.396C115.106 15.396 115.97 15.396 116.834 15.36C116.87 17.916 117.014 20.544 117.086 22.776C116.366 22.668 115.574 22.632 114.746 22.632C109.85 22.632 106.754 25.152 106.754 28.788C106.754 32.568 109.85 34.656 114.818 34.656C119.678 34.656 121.622 32.208 121.838 28.752C123.278 29.724 124.718 30.984 126.23 32.388L128.714 28.608C126.986 27.024 124.718 25.188 121.73 23.964C121.586 21.516 121.406 18.636 121.334 15.144C123.314 15 125.186 14.784 126.914 14.532V10.032C125.186 10.392 123.314 10.68 121.334 10.86C121.37 9.276 121.406 7.944 121.442 7.152C121.478 6.36 121.55 5.496 121.658 4.812ZM104.09 5.208L99.1223 4.776C99.0863 5.928 98.9063 7.296 98.7623 8.304C98.3663 11.076 97.2863 17.88 97.2863 23.316C97.2863 28.212 97.9703 32.316 98.7263 34.836L102.794 34.512C102.758 34.008 102.722 33.396 102.722 33.036C102.722 32.64 102.794 31.848 102.902 31.344C103.334 29.4 104.486 25.728 105.494 22.776L103.298 20.976C102.758 22.2 102.146 23.424 101.678 24.684C101.57 23.964 101.534 23.064 101.534 22.344C101.534 18.744 102.722 10.824 103.262 8.412C103.37 7.764 103.802 5.928 104.09 5.208ZM137.714 5.82L137.786 10.536C138.578 10.392 139.874 10.284 140.774 10.212C142.502 10.104 147.506 9.852 149.486 9.78C146.642 12.732 137.75 19.968 132.962 23.64L136.346 27.204C140.198 23.28 144.122 19.716 149.702 19.716C153.806 19.716 156.434 21.84 156.434 24.684C156.434 29.436 150.53 31.56 140.558 30.264L141.818 34.944C155.138 36.024 161.366 31.848 161.366 24.72C161.366 19.68 157.046 15.936 150.71 15.936C149.81 15.936 148.478 16.044 147.29 16.404C150.422 14.028 153.878 11.256 155.966 9.708C156.47 9.384 157.298 8.844 157.946 8.484L155.534 5.316C154.85 5.496 153.77 5.64 152.942 5.712C150.602 5.856 142.574 5.964 140.63 5.964C139.442 5.964 138.29 5.892 137.714 5.82Z" fill="#FFF2DF"/>
<path d="M29.6191 33V37H32.9863L33.5605 33.6822L29.6191 33ZM24.4688 33L20.5273 32.3178L19.717 37H24.4688V33ZM26.3672 22.0312L30.3086 22.7134L31.119 18.0312H26.3672V22.0312ZM16.4355 22.0312V18.0312H13.0737L12.4952 21.343L16.4355 22.0312ZM14.5195 33V37H17.8814L18.4599 33.6883L14.5195 33ZM9.36914 33L5.42819 32.3152L4.61415 37H9.36914V33ZM13.8164 7.40625V3.40625H10.4515L9.87546 6.72146L13.8164 7.40625ZM18.9668 7.40625L22.9072 8.09415L23.7256 3.40625H18.9668V7.40625ZM17.1562 17.7773L13.2158 17.0894L12.3974 21.7773H17.1562V17.7773ZM27.1055 17.7773V21.7773H30.4733L31.047 18.4588L27.1055 17.7773ZM28.8984 7.40625V3.40625H25.5306L24.9569 6.72483L28.8984 7.40625ZM34.0488 7.40625L37.9902 8.08842L38.8006 3.40625H34.0488V7.40625ZM29.6191 29H24.4688V37H29.6191V29ZM28.4102 33.6822L30.3086 22.7134L22.4258 21.3491L20.5273 32.3178L28.4102 33.6822ZM26.3672 18.0312H16.4355V26.0312H26.3672V18.0312ZM12.4952 21.343L10.5792 32.3117L18.4599 33.6883L20.3759 22.7195L12.4952 21.343ZM14.5195 29H9.36914V37H14.5195V29ZM13.3101 33.6848L17.7574 8.09104L9.87546 6.72146L5.42819 32.3152L13.3101 33.6848ZM13.8164 11.4062H18.9668V3.40625H13.8164V11.4062ZM15.0264 6.71835L13.2158 17.0894L21.0967 18.4652L22.9072 8.09415L15.0264 6.71835ZM17.1562 21.7773H27.1055V13.7773H17.1562V21.7773ZM31.047 18.4588L32.84 8.08767L24.9569 6.72483L23.1639 17.0959L31.047 18.4588ZM28.8984 11.4062H34.0488V3.40625H28.8984V11.4062ZM30.1074 6.72408L25.6777 32.3178L33.5605 33.6822L37.9902 8.08842L30.1074 6.72408ZM44.9121 33L41.0992 34.209L41.9841 37H44.9121V33ZM44.7188 31.2773L48.7163 31.4176L49.0725 21.2668L41.8903 28.4489L44.7188 31.2773ZM39.8672 33.3516L39.971 29.3529L39.9473 29.3523L39.9235 29.352L39.8672 33.3516ZM35.7188 31.7344L32.9212 34.5934L32.9368 34.6086L32.9525 34.6236L35.7188 31.7344ZM34.1895 27.7969L38.1854 27.9771L38.1859 27.966L38.1863 27.9549L34.1895 27.7969ZM36.791 23.0332L39.0098 26.3614L39.0152 26.3578L36.791 23.0332ZM43.4707 21.3633L43.5313 17.3637L43.501 17.3633H43.4707V21.3633ZM45.791 21.3984L45.7304 25.398L49.0106 25.4477L49.7013 22.2407L45.791 21.3984ZM46.0371 20.2559L49.9474 21.0981L49.961 21.0349L49.9726 20.9714L46.0371 20.2559ZM46.0898 19.1484L50.07 18.7504L50.0687 18.7379L50.0674 18.7253L46.0898 19.1484ZM45.457 17.8652L42.7812 20.8384L42.8331 20.8851L42.8866 20.93L45.457 17.8652ZM44.0508 17.373L43.9296 21.3712L43.9502 21.3718L43.9708 21.3722L44.0508 17.373ZM42.082 17.9531L44.4596 21.1698L44.482 21.1533L44.5041 21.1364L42.082 17.9531ZM41.0449 19.6934L41.0591 23.6933L44.3265 23.6818L44.9672 20.4778L41.0449 19.6934ZM36.0703 19.7109L32.0744 19.5305L31.8849 23.7258L36.0844 23.7109L36.0703 19.7109ZM38.5664 15.2988L40.8845 18.5587L40.8891 18.5554L38.5664 15.2988ZM44.4551 13.6289L44.542 9.62985L44.5186 9.62934L44.4953 9.62911L44.4551 13.6289ZM49.5176 15.5625L46.6623 18.3639L46.669 18.3706L46.6757 18.3774L49.5176 15.5625ZM51.0469 20.3262L54.9965 20.959L55.0145 20.8468L55.0261 20.7337L51.0469 20.3262ZM49.5879 29.4316L45.6383 28.7988L45.6127 28.9587L45.6 29.1201L49.5879 29.4316ZM49.5 30.5566L45.5121 30.2451L45.5044 30.3444L45.5016 30.444L49.5 30.5566ZM49.7988 32.666L53.7933 32.8763L53.8384 32.0197L53.5283 31.2199L49.7988 32.666ZM49.7812 33V37H53.5763L53.7757 33.2102L49.7812 33ZM41.0977 29.502L41.2287 25.5041L41.2009 25.5032L41.1731 25.5027L41.0977 29.502ZM44.8418 27.6387L47.9238 30.1884L48.5832 29.3913L48.7735 28.3746L44.8418 27.6387ZM45.457 24.3516L49.3888 25.0874L50.266 20.4004L45.4978 20.3518L45.457 24.3516ZM43.7344 24.334L43.7752 20.3342L43.7035 20.3335L43.6318 20.3353L43.7344 24.334ZM39.7793 26.0039L36.5919 23.5871L36.5909 23.5885L39.7793 26.0039ZM39.2344 27.4277L43.1912 28.0139L43.1978 27.969L43.2035 27.9239L39.2344 27.4277ZM39.6211 28.9395L36.7029 31.6752L36.7471 31.7223L36.7927 31.7679L39.6211 28.9395ZM48.725 31.791C48.7381 31.8321 48.7318 31.8278 48.7245 31.7628C48.7172 31.6977 48.7104 31.5854 48.7163 31.4176L40.7212 31.1371C40.6867 32.1219 40.7718 33.1765 41.0992 34.209L48.725 31.791ZM41.8903 28.4489C41.1337 29.2055 40.5422 29.3677 39.971 29.3529L39.7633 37.3502C42.8016 37.4291 45.4444 36.2085 47.5472 34.1058L41.8903 28.4489ZM39.9235 29.352C39.1702 29.3413 38.7866 29.1339 38.485 28.8451L32.9525 34.6236C34.854 36.4442 37.2361 37.3149 39.8109 37.3512L39.9235 29.352ZM38.5163 28.8754C38.2616 28.6262 38.165 28.4284 38.1854 27.9771L30.1935 27.6166C30.0732 30.2826 30.9962 32.7098 32.9212 34.5934L38.5163 28.8754ZM38.1863 27.9549C38.2204 27.0929 38.4794 26.715 39.0098 26.3614L34.5722 19.705C31.7979 21.5545 30.3225 24.3524 30.1926 27.6388L38.1863 27.9549ZM39.0152 26.3578C39.8093 25.8266 41.1731 25.3633 43.4707 25.3633V17.3633C40.1902 17.3633 37.1009 18.0133 34.5668 19.7086L39.0152 26.3578ZM43.4101 25.3628L45.7304 25.398L45.8516 17.3989L43.5313 17.3637L43.4101 25.3628ZM49.7013 22.2407L49.9474 21.0981L42.1268 19.4136L41.8807 20.5562L49.7013 22.2407ZM49.9726 20.9714C50.1023 20.2581 50.1462 19.5125 50.07 18.7504L42.1097 19.5465C42.1069 19.5181 42.1074 19.5014 42.1076 19.4987C42.1077 19.4963 42.1072 19.5096 42.1016 19.5403L49.9726 20.9714ZM50.0674 18.7253C49.9191 17.3309 49.3165 15.8815 48.0275 14.8005L42.8866 20.93C42.6404 20.7236 42.4387 20.4646 42.3002 20.1837C42.1668 19.9132 42.1249 19.6901 42.1123 19.5716L50.0674 18.7253ZM48.1329 14.8921C46.9083 13.7899 45.4391 13.4 44.1308 13.3738L43.9708 21.3722C43.9149 21.3711 43.7498 21.3606 43.5204 21.2803C43.28 21.1962 43.0188 21.0523 42.7812 20.8384L48.1329 14.8921ZM44.1719 13.3749C42.6199 13.3279 41.0308 13.7268 39.6599 14.7698L44.5041 21.1364C44.3825 21.229 44.2428 21.298 44.109 21.3374C43.9818 21.3749 43.9114 21.3707 43.9296 21.3712L44.1719 13.3749ZM39.7045 14.7364C38.2405 15.8185 37.4368 17.3377 37.1226 18.9089L44.9672 20.4778C44.9675 20.4767 44.9464 20.5806 44.8545 20.7348C44.7577 20.8973 44.6202 21.0511 44.4596 21.1698L39.7045 14.7364ZM41.0308 15.6934L36.0562 15.711L36.0844 23.7109L41.0591 23.6933L41.0308 15.6934ZM40.0662 19.8914C40.0885 19.398 40.2275 19.0259 40.8845 18.5586L36.2483 12.039C33.7413 13.8218 32.2162 16.3911 32.0744 19.5305L40.0662 19.8914ZM40.8891 18.5554C41.6696 17.9987 42.7629 17.6121 44.4149 17.6287L44.4953 9.62911C41.4832 9.59884 38.6507 10.3255 36.2437 12.0423L40.8891 18.5554ZM44.3681 17.628C45.7443 17.6579 46.3407 18.036 46.6623 18.3639L52.3728 12.7611C50.257 10.6046 47.4783 9.69368 44.542 9.62985L44.3681 17.628ZM46.6757 18.3774C46.9372 18.6415 47.1628 18.9904 47.0677 19.9187L55.0261 20.7337C55.3294 17.7713 54.5354 14.9445 52.3595 12.7476L46.6757 18.3774ZM47.0973 19.6933L45.6383 28.7988L53.5375 30.0645L54.9965 20.959L47.0973 19.6933ZM45.6 29.1201L45.5121 30.2451L53.4879 30.8682L53.5757 29.7432L45.6 29.1201ZM45.5016 30.444C45.4681 31.6322 45.5994 32.9 46.0694 34.1121L53.5283 31.2199C53.553 31.2836 53.485 31.1452 53.4984 30.6693L45.5016 30.444ZM45.8044 32.4558L45.7868 32.7898L53.7757 33.2102L53.7933 32.8763L45.8044 32.4558ZM49.7812 29H44.9121V37H49.7812V29ZM40.9666 33.4998C43.8524 33.5944 46.219 32.2491 47.9238 30.1884L41.7597 25.089C41.5129 25.3873 41.3574 25.4735 41.3238 25.4902C41.3058 25.4992 41.2989 25.5004 41.2972 25.5008C41.2949 25.5013 41.2751 25.5056 41.2287 25.5041L40.9666 33.4998ZM48.7735 28.3746L49.3888 25.0874L41.5253 23.6157L40.9101 26.9028L48.7735 28.3746ZM45.4978 20.3518L43.7752 20.3342L43.6936 28.3338L45.4162 28.3514L45.4978 20.3518ZM43.6318 20.3353C41.0617 20.4012 38.38 21.229 36.5919 23.5871L42.9666 28.4207C42.9182 28.4846 42.8704 28.4969 42.9304 28.4716C43.0207 28.4335 43.2898 28.3467 43.8369 28.3327L43.6318 20.3353ZM36.5909 23.5885C35.8069 24.6234 35.4079 25.7904 35.2653 26.9316L43.2035 27.9239C43.2032 27.9258 43.1957 27.984 43.1591 28.0796C43.1213 28.1783 43.0599 28.2976 42.9677 28.4193L36.5909 23.5885ZM35.2776 26.8415C35.053 28.3574 35.3149 30.1947 36.7029 31.6752L42.5392 26.2037C42.83 26.5138 43.0355 26.8962 43.136 27.2889C43.2298 27.656 43.2048 27.9218 43.1912 28.0139L35.2776 26.8415ZM36.7927 31.7679C38.0354 33.0106 39.5962 33.4743 41.0222 33.5012L41.1731 25.5027C41.2429 25.504 41.4321 25.5176 41.6867 25.6146C41.954 25.7164 42.2222 25.8837 42.4495 26.111L36.7927 31.7679ZM65.8477 18.7441L65.168 22.686L69.2807 23.3951L69.8148 19.256L65.8477 18.7441ZM64.1777 18.5684L64.0718 22.567L64.1248 22.5684H64.1777V18.5684ZM59.9766 20.5547L56.7798 18.1503L56.204 18.9159L56.0375 19.8592L59.9766 20.5547ZM57.7793 33V37H61.1349L61.7184 33.6955L57.7793 33ZM52.8223 33L48.8813 32.3153L48.0673 37H52.8223V33ZM56.127 13.9805L56.1119 9.9805L52.7598 9.99315L52.186 13.2957L56.127 13.9805ZM60.7852 13.9629L64.7098 14.7359L65.6535 9.94449L60.7701 9.96292L60.7852 13.9629ZM60.3281 16.2832L56.4035 15.5102L63.6563 18.502L60.3281 16.2832ZM66.4805 13.8398L70.4476 14.3517L70.903 10.8224L67.4506 9.95927L66.4805 13.8398ZM66.5273 14.8023C65.7378 14.6662 64.9316 14.5684 64.1777 14.5684V22.5684C64.291 22.5684 64.5982 22.5877 65.168 22.686L66.5273 14.8023ZM64.2837 14.5698C61.2689 14.4899 58.618 15.7063 56.7798 18.1503L63.1733 22.9591C63.3416 22.7353 63.4574 22.6708 63.51 22.646C63.5672 22.6189 63.7239 22.5577 64.0718 22.567L64.2837 14.5698ZM56.0375 19.8592L53.8402 32.3045L61.7184 33.6955L63.9156 21.2501L56.0375 19.8592ZM57.7793 29H52.8223V37H57.7793V29ZM56.7632 33.6847L60.0679 14.6652L52.186 13.2957L48.8813 32.3153L56.7632 33.6847ZM56.142 17.9804L60.8003 17.9629L60.7701 9.96292L56.1119 9.9805L56.142 17.9804ZM56.8606 13.1899L56.4035 15.5102L64.2527 17.0562L64.7098 14.7359L56.8606 13.1899ZM63.6563 18.502C64.0076 17.9752 64.2778 17.7643 64.4079 17.6853C64.5089 17.6239 64.5974 17.5938 64.7578 17.5938V9.59375C61.3512 9.59375 58.7459 11.4454 56.9999 14.0644L63.6563 18.502ZM64.7578 17.5938C64.8269 17.5938 65.0622 17.6084 65.5103 17.7204L67.4506 9.95927C66.5862 9.74318 65.6731 9.59375 64.7578 9.59375V17.5938ZM62.5134 13.328L61.8805 18.2323L69.8148 19.256L70.4476 14.3517L62.5134 13.328ZM76.0078 13.6289L75.9017 17.6275L75.9268 17.6282L75.9519 17.6285L76.0078 13.6289ZM80.332 14.9297L78.0403 18.2081L78.0584 18.2208L78.0767 18.2333L80.332 14.9297ZM83.0039 18.3926L79.266 19.8166L79.2728 19.8345L79.2798 19.8524L83.0039 18.3926ZM83.6191 23.2793L79.6358 22.9148L79.6349 22.9241L83.6191 23.2793ZM80.4551 30.627L77.6 27.8254L77.5998 27.8256L80.4551 30.627ZM73.6699 33.3516L73.7395 29.3521L73.7267 29.352L73.6699 33.3516ZM69.3809 32.0859L67.1107 35.3793L67.1216 35.3868L67.1325 35.3942L69.3809 32.0859ZM66.0938 23.7891L62.1124 23.4028L62.1116 23.4113L62.1108 23.4198L66.0938 23.7891ZM70.998 25.5996L74.9972 25.5163L74.9968 25.5L74.9964 25.4837L70.998 25.5996ZM71.7891 28.2715L68.6165 30.7076L68.6271 30.7214L68.6378 30.7352L71.7891 28.2715ZM73.916 29.2734L74.039 25.2753L74.0288 25.275L74.0185 25.2748L73.916 29.2734ZM77.502 27.1816L80.9295 29.2437L80.9331 29.2376L80.9368 29.2315L77.502 27.1816ZM78.7148 21.4688L82.7136 21.3693L82.7128 21.3357L82.7114 21.3022L78.7148 21.4688ZM77.8887 18.7793L74.6489 21.1253L74.6718 21.157L74.6954 21.1883L77.8887 18.7793ZM75.7617 17.7246L75.6348 21.7226L75.6476 21.723L75.6605 21.7233L75.7617 17.7246ZM72.2109 19.8164L68.8081 17.7138L68.8033 17.7216L72.2109 19.8164ZM75.9519 17.6285C76.9412 17.6424 77.5773 17.8844 78.0403 18.2081L82.6237 11.6513C80.6727 10.2874 78.426 9.66234 76.0638 9.6293L75.9519 17.6285ZM78.0767 18.2333C78.5723 18.5716 78.9725 19.0463 79.266 19.8166L86.7419 16.9686C85.9103 14.7858 84.5292 12.9518 82.5873 11.6261L78.0767 18.2333ZM79.2798 19.8524C79.596 20.6591 79.7513 21.652 79.6358 22.9148L87.6025 23.6438C87.8151 21.3207 87.5602 19.0558 86.728 16.9327L79.2798 19.8524ZM79.6349 22.9241C79.4341 25.1769 78.6932 26.7113 77.6 27.8254L83.3101 33.4285C85.8966 30.7926 87.2651 27.4286 87.6033 23.6345L79.6349 22.9241ZM77.5998 27.8256C76.5688 28.8765 75.3772 29.3806 73.7395 29.3522L73.6004 37.351C77.3532 37.4162 80.6852 36.104 83.3103 33.4283L77.5998 27.8256ZM73.7267 29.352C72.7499 29.3381 72.106 29.1017 71.6292 28.7776L67.1325 35.3942C69.0698 36.7108 71.2852 37.3181 73.6132 37.3512L73.7267 29.352ZM71.651 28.7926C71.1493 28.4467 70.7386 27.9603 70.4331 27.1808L62.9849 30.1005C63.8278 32.2507 65.1983 34.0611 67.1107 35.3793L71.651 28.7926ZM70.4331 27.1808C70.1147 26.3685 69.9627 25.3875 70.0767 24.1583L62.1108 23.4198C61.8967 25.7297 62.1549 27.9831 62.9849 30.1005L70.4331 27.1808ZM70.0751 24.1753C70.3106 21.7477 71.0858 20.1782 72.1394 19.1111L66.4466 13.4904C63.8439 16.1265 62.4863 19.5492 62.1124 23.4028L70.0751 24.1753ZM72.1394 19.1111C73.1741 18.0631 74.3365 17.5859 75.9017 17.6275L76.114 9.63031C72.3822 9.53124 69.0681 10.8353 66.4466 13.4904L72.1394 19.1111ZM66.9989 25.6829C67.0338 27.3584 67.4355 29.1696 68.6165 30.7076L74.9617 25.8354C75.043 25.9412 75.0583 26.008 75.0488 25.9758C75.0369 25.9355 75.003 25.7947 74.9972 25.5163L66.9989 25.6829ZM68.6378 30.7352C69.9702 32.4394 71.8636 33.2221 73.8135 33.2721L74.0185 25.2748C74.0246 25.2749 74.1793 25.2812 74.4034 25.3868C74.6398 25.4982 74.8244 25.6596 74.9403 25.8078L68.6378 30.7352ZM73.793 33.2715C76.937 33.3683 79.4104 31.7687 80.9295 29.2437L74.0744 25.1196C73.9929 25.2552 73.9342 25.3223 73.9108 25.3465C73.8896 25.3684 73.8982 25.3547 73.9396 25.3305C73.959 25.3192 73.9813 25.3082 74.0052 25.2986C74.029 25.2891 74.0501 25.2827 74.0664 25.2788C74.1011 25.2705 74.0972 25.2771 74.039 25.2753L73.793 33.2715ZM80.9368 29.2315C82.3149 26.9222 82.7839 24.1956 82.7136 21.3693L74.7161 21.5682C74.763 23.4528 74.4234 24.5348 74.0671 25.1318L80.9368 29.2315ZM82.7114 21.3022C82.6421 19.6407 82.2182 17.8766 81.0819 16.3703L74.6954 21.1883C74.5669 21.018 74.6938 21.0468 74.7183 21.6353L82.7114 21.3022ZM81.1284 16.4333C79.822 14.6291 77.887 13.7771 75.863 13.7259L75.6605 21.7233C75.6396 21.7228 75.4595 21.7128 75.2108 21.5895C74.9496 21.4599 74.7593 21.2778 74.6489 21.1253L81.1284 16.4333ZM75.8886 13.7266C72.7457 13.6268 70.3188 15.2689 68.8081 17.7138L75.6138 21.919C75.7048 21.7716 75.7725 21.6934 75.8052 21.6597C75.8359 21.628 75.8346 21.6366 75.7969 21.6588C75.7572 21.6822 75.7076 21.7027 75.6592 21.7145C75.6129 21.7259 75.5996 21.7215 75.6348 21.7226L75.8886 13.7266ZM68.8033 17.7216C67.3725 20.0492 66.9164 22.841 66.9997 25.7155L74.9964 25.4837C74.9391 23.5067 75.2916 22.443 75.6185 21.9112L68.8033 17.7216ZM117.266 26.484H121.266V23.4185L118.306 22.6215L117.266 26.484ZM121.658 4.812L125.609 5.43585L126.339 0.811998H121.658V4.812ZM116.51 4.812V0.811998H111.631L112.588 5.59646L116.51 4.812ZM116.798 11.184L116.972 15.1802L120.798 15.0139V11.184H116.798ZM107.978 10.896L108.397 6.91798L103.978 6.45285V10.896H107.978ZM107.978 15.18H103.978V18.918L107.708 19.1708L107.978 15.18ZM116.834 15.36L120.834 15.3037L120.776 11.1923L116.668 11.3635L116.834 15.36ZM117.086 22.776L116.493 26.7317L121.239 27.4436L121.084 22.647L117.086 22.776ZM121.838 28.752L124.076 25.4366L118.282 21.5256L117.846 28.5025L121.838 28.752ZM126.23 32.388L123.509 35.3192L126.975 38.5382L129.573 34.5847L126.23 32.388ZM128.714 28.608L132.057 30.8047L133.927 27.9597L131.417 25.6594L128.714 28.608ZM121.73 23.964L117.737 24.1989L117.885 26.7114L120.214 27.6655L121.73 23.964ZM121.334 15.144L121.044 11.1545L117.257 11.43L117.335 15.2265L121.334 15.144ZM126.914 14.532L127.492 18.4901L130.914 17.991V14.532H126.914ZM126.914 10.032H130.914V5.11278L126.099 6.11608L126.914 10.032ZM121.334 10.86L117.335 10.7691L117.234 15.2493L121.696 14.8436L121.334 10.86ZM121.442 7.152L117.446 6.97037V6.97037L121.442 7.152ZM104.09 5.208L107.804 6.69357L109.806 1.6899L104.437 1.22304L104.09 5.208ZM99.1223 4.776L99.4689 0.791036L95.2564 0.424732L95.1243 4.65106L99.1223 4.776ZM98.7623 8.304L94.8025 7.73831V7.73831L98.7623 8.304ZM98.7263 34.836L94.895 35.9854L95.8234 39.0799L99.0439 38.8234L98.7263 34.836ZM102.794 34.512L103.112 38.4994L107.067 38.1844L106.784 34.227L102.794 34.512ZM102.902 31.344L98.9976 30.4763L98.9943 30.4911L98.9911 30.5059L102.902 31.344ZM105.494 22.776L109.28 24.0686L110.177 21.4419L108.03 19.6824L105.494 22.776ZM103.298 20.976L105.834 17.8824L101.763 14.5457L99.6387 19.3614L103.298 20.976ZM101.678 24.684L97.7226 25.2774L105.428 26.0767L101.678 24.684ZM103.262 8.412L107.166 9.28589L107.19 9.17832L107.208 9.06959L103.262 8.412ZM114.966 28.32C114.966 28.6706 114.872 29.0614 114.663 29.4175C114.462 29.7592 114.225 29.9557 114.079 30.05C113.832 30.2098 113.854 30.088 114.386 30.088V22.088C112.866 22.088 111.179 22.3982 109.735 23.332C108.164 24.3475 106.966 26.0903 106.966 28.32H114.966ZM114.386 30.088C114.967 30.088 115.588 30.1746 116.226 30.3465L118.306 22.6215C117.073 22.2894 115.75 22.088 114.386 22.088V30.088ZM113.266 26.484C113.266 26.4845 113.266 26.485 113.266 26.4855C113.266 26.486 113.266 26.4865 113.266 26.487C113.266 26.4874 113.266 26.4879 113.266 26.4884C113.266 26.4889 113.266 26.4894 113.266 26.4899C113.266 26.4904 113.266 26.4909 113.266 26.4914C113.266 26.4919 113.266 26.4924 113.266 26.4928C113.266 26.4933 113.266 26.4938 113.266 26.4943C113.266 26.4948 113.266 26.4953 113.266 26.4958C113.266 26.4963 113.266 26.4968 113.266 26.4973C113.266 26.4977 113.266 26.4982 113.266 26.4987C113.266 26.4992 113.266 26.4997 113.266 26.5002C113.266 26.5007 113.266 26.5012 113.266 26.5017C113.266 26.5021 113.266 26.5026 113.266 26.5031C113.266 26.5036 113.266 26.5041 113.266 26.5046C113.266 26.5051 113.266 26.5056 113.266 26.5061C113.266 26.5065 113.266 26.507 113.266 26.5075C113.266 26.508 113.266 26.5085 113.266 26.509C113.266 26.5095 113.266 26.51 113.266 26.5104C113.266 26.5109 113.266 26.5114 113.266 26.5119C113.266 26.5124 113.266 26.5129 113.266 26.5134C113.266 26.5139 113.266 26.5143 113.266 26.5148C113.266 26.5153 113.266 26.5158 113.266 26.5163C113.266 26.5168 113.266 26.5173 113.266 26.5177C113.266 26.5182 113.266 26.5187 113.266 26.5192C113.266 26.5197 113.266 26.5202 113.266 26.5207C113.266 26.5211 113.266 26.5216 113.266 26.5221C113.266 26.5226 113.266 26.5231 113.266 26.5236C113.266 26.5241 113.266 26.5245 113.266 26.525C113.266 26.5255 113.266 26.526 113.266 26.5265C113.266 26.527 113.266 26.5274 113.266 26.5279C113.266 26.5284 113.266 26.5289 113.266 26.5294C113.266 26.5299 113.266 26.5303 113.266 26.5308C113.266 26.5313 113.266 26.5318 113.266 26.5323C113.266 26.5328 113.266 26.5332 113.266 26.5337C113.266 26.5342 113.266 26.5347 113.266 26.5352C113.266 26.5357 113.266 26.5361 113.266 26.5366C113.266 26.5371 113.266 26.5376 113.266 26.5381C113.266 26.5386 113.266 26.539 113.266 26.5395C113.266 26.54 113.266 26.5405 113.266 26.541C113.266 26.5414 113.266 26.5419 113.266 26.5424C113.266 26.5429 113.266 26.5434 113.266 26.5438C113.266 26.5443 113.266 26.5448 113.266 26.5453C113.266 26.5458 113.266 26.5462 113.266 26.5467C113.266 26.5472 113.266 26.5477 113.266 26.5482C113.266 26.5487 113.266 26.5491 113.266 26.5496C113.266 26.5501 113.266 26.5506 113.266 26.5511C113.266 26.5515 113.266 26.552 113.266 26.5525C113.266 26.553 113.266 26.5534 113.266 26.5539C113.266 26.5544 113.266 26.5549 113.266 26.5554C113.266 26.5558 113.266 26.5563 113.266 26.5568C113.266 26.5573 113.266 26.5578 113.266 26.5582C113.266 26.5587 113.266 26.5592 113.266 26.5597C113.266 26.5601 113.266 26.5606 113.266 26.5611C113.266 26.5616 113.266 26.5621 113.266 26.5625C113.266 26.563 113.266 26.5635 113.266 26.564C113.266 26.5644 113.266 26.5649 113.266 26.5654C113.266 26.5659 113.266 26.5663 113.266 26.5668C113.266 26.5673 113.266 26.5678 113.266 26.5683C113.266 26.5687 113.266 26.5692 113.266 26.5697C113.266 26.5702 113.266 26.5706 113.266 26.5711C113.266 26.5716 113.266 26.5721 113.266 26.5725C113.266 26.573 113.266 26.5735 113.266 26.574C113.266 26.5744 113.266 26.5749 113.266 26.5754C113.266 26.5759 113.266 26.5763 113.266 26.5768C113.266 26.5773 113.266 26.5778 113.266 26.5782C113.266 26.5787 113.266 26.5792 113.266 26.5797C113.266 26.5801 113.266 26.5806 113.266 26.5811C113.266 26.5816 113.266 26.582 113.266 26.5825C113.266 26.583 113.266 26.5834 113.266 26.5839C113.266 26.5844 113.266 26.5849 113.266 26.5853C113.266 26.5858 113.266 26.5863 113.266 26.5868C113.266 26.5872 113.266 26.5877 113.266 26.5882C113.266 26.5886 113.266 26.5891 113.266 26.5896C113.266 26.5901 113.266 26.5905 113.266 26.591C113.266 26.5915 113.266 26.592 113.266 26.5924C113.266 26.5929 113.266 26.5934 113.266 26.5938C113.266 26.5943 113.266 26.5948 113.266 26.5953C113.266 26.5957 113.266 26.5962 113.266 26.5967C113.266 26.5971 113.266 26.5976 113.266 26.5981C113.266 26.5985 113.266 26.599 113.266 26.5995C113.266 26.6 113.266 26.6004 113.266 26.6009C113.266 26.6014 113.266 26.6018 113.266 26.6023C113.266 26.6028 113.266 26.6032 113.266 26.6037C113.266 26.6042 113.266 26.6047 113.266 26.6051C113.266 26.6056 113.266 26.6061 113.266 26.6065C113.266 26.607 113.266 26.6075 113.266 26.6079C113.266 26.6084 113.266 26.6089 113.266 26.6093C113.266 26.6098 113.266 26.6103 113.266 26.6107C113.266 26.6112 113.266 26.6117 113.266 26.6122C113.266 26.6126 113.266 26.6131 113.266 26.6136C113.266 26.614 113.266 26.6145 113.266 26.615C113.266 26.6154 113.266 26.6159 113.266 26.6164C113.266 26.6168 113.266 26.6173 113.266 26.6178C113.266 26.6182 113.266 26.6187 113.266 26.6192C113.266 26.6196 113.266 26.6201 113.266 26.6206C113.266 26.621 113.266 26.6215 113.266 26.622C113.266 26.6224 113.266 26.6229 113.266 26.6234C113.266 26.6238 113.266 26.6243 113.266 26.6247C113.266 26.6252 113.266 26.6257 113.266 26.6261C113.266 26.6266 113.266 26.6271 113.266 26.6275C113.266 26.628 113.266 26.6285 113.266 26.6289C113.266 26.6294 113.266 26.6299 113.266 26.6303C113.266 26.6308 113.266 26.6313 113.266 26.6317C113.266 26.6322 113.266 26.6326 113.266 26.6331C113.266 26.6336 113.266 26.634 113.266 26.6345C113.266 26.635 113.266 26.6354 113.266 26.6359C113.266 26.6363 113.266 26.6368 113.266 26.6373C113.266 26.6377 113.266 26.6382 113.266 26.6387C113.266 26.6391 113.266 26.6396 113.266 26.6401C113.266 26.6405 113.266 26.641 113.266 26.6414C113.266 26.6419 113.266 26.6424 113.266 26.6428C113.266 26.6433 113.266 26.6437 113.266 26.6442C113.266 26.6447 113.266 26.6451 113.266 26.6456C113.266 26.6461 113.266 26.6465 113.266 26.647C113.266 26.6474 113.266 26.6479 113.266 26.6484C113.266 26.6488 113.266 26.6493 113.266 26.6497C113.266 26.6502 113.266 26.6507 113.266 26.6511C113.266 26.6516 113.266 26.652 113.266 26.6525C113.266 26.653 113.266 26.6534 113.266 26.6539C113.266 26.6543 113.266 26.6548 113.266 26.6553C113.266 26.6557 113.266 26.6562 113.266 26.6566C113.266 26.6571 113.266 26.6575 113.266 26.658C113.266 26.6585 113.266 26.6589 113.266 26.6594C113.266 26.6598 113.266 26.6603 113.266 26.6608C113.266 26.6612 113.266 26.6617 113.266 26.6621C113.266 26.6626 113.266 26.663 113.266 26.6635C113.266 26.664 113.266 26.6644 113.266 26.6649C113.266 26.6653 113.266 26.6658 113.266 26.6663C113.266 26.6667 113.266 26.6672 113.266 26.6676C113.266 26.6681 113.266 26.6685 113.266 26.669C113.266 26.6694 113.266 26.6699 113.266 26.6704C113.266 26.6708 113.266 26.6713 113.266 26.6717C113.266 26.6722 113.266 26.6726 113.266 26.6731C113.266 26.6735 113.266 26.674 113.266 26.6745C113.266 26.6749 113.266 26.6754 113.266 26.6758C113.266 26.6763 113.266 26.6767 113.266 26.6772C113.266 26.6776 113.266 26.6781 113.266 26.6786C113.266 26.679 113.266 26.6795 113.266 26.6799C113.266 26.6804 113.266 26.6808 113.266 26.6813C113.266 26.6817 113.266 26.6822 113.266 26.6826C113.266 26.6831 113.266 26.6835 113.266 26.684C113.266 26.6845 113.266 26.6849 113.266 26.6854C113.266 26.6858 113.266 26.6863 113.266 26.6867C113.266 26.6872 113.266 26.6876 113.266 26.6881C113.266 26.6885 113.266 26.689 113.266 26.6894C113.266 26.6899 113.266 26.6903 113.266 26.6908C113.266 26.6912 113.266 26.6917 113.266 26.6922C113.266 26.6926 113.266 26.6931 113.266 26.6935C113.266 26.694 113.266 26.6944 113.266 26.6949C113.266 26.6953 113.266 26.6958 113.266 26.6962C113.266 26.6967 113.266 26.6971 113.266 26.6976C113.266 26.698 113.266 26.6985 113.266 26.6989C113.266 26.6994 113.266 26.6998 113.266 26.7003C113.266 26.7007 113.266 26.7012 113.266 26.7016C113.266 26.7021 113.266 26.7025 113.266 26.703C113.266 26.7034 113.266 26.7039 113.266 26.7043C113.266 26.7048 113.266 26.7052 113.266 26.7057C113.266 26.7061 113.266 26.7066 113.266 26.707C113.266 26.7075 113.266 26.7079 113.266 26.7084C113.266 26.7088 113.266 26.7093 113.266 26.7097C113.266 26.7102 113.266 26.7106 113.266 26.711C113.266 26.7115 113.266 26.7119 113.266 26.7124C113.266 26.7128 113.266 26.7133 113.266 26.7137C113.266 26.7142 113.266 26.7146 113.266 26.7151C113.266 26.7155 113.266 26.716 113.266 26.7164C113.266 26.7169 113.266 26.7173 113.266 26.7178C113.266 26.7182 113.266 26.7186 113.266 26.7191C113.266 26.7195 113.266 26.72 113.266 26.7204C113.266 26.7209 113.266 26.7213 113.266 26.7218C113.266 26.7222 113.266 26.7227 113.266 26.7231C113.266 26.7236 113.266 26.724 113.266 26.7244C113.266 26.7249 113.266 26.7253 113.266 26.7258C113.266 26.7262 113.266 26.7267 113.266 26.7271C113.266 26.7276 113.266 26.728 113.266 26.7284C113.266 26.7289 113.266 26.7293 113.266 26.7298C113.266 26.7302 113.266 26.7307 113.266 26.7311C113.266 26.7316 113.266 26.732 113.266 26.7324C113.266 26.7329 113.266 26.7333 113.266 26.7338C113.266 26.7342 113.266 26.7347 113.266 26.7351C113.266 26.7355 113.266 26.736 113.266 26.7364C113.266 26.7369 113.266 26.7373 113.266 26.7378C113.266 26.7382 113.266 26.7386 113.266 26.7391C113.266 26.7395 113.266 26.74 113.266 26.7404C113.266 26.7409 113.266 26.7413 113.266 26.7417C113.266 26.7422 113.266 26.7426 113.266 26.7431C113.266 26.7435 113.266 26.7439 113.266 26.7444C113.266 26.7448 113.266 26.7453 113.266 26.7457C113.266 26.7462 113.266 26.7466 113.266 26.747C113.266 26.7475 113.266 26.7479 113.266 26.7484C113.266 26.7488 113.266 26.7492 113.266 26.7497C113.266 26.7501 113.266 26.7506 113.266 26.751C113.266 26.7514 113.266 26.7519 113.266 26.7523C113.266 26.7528 113.266 26.7532 113.266 26.7536C113.266 26.7541 113.266 26.7545 113.266 26.7549C113.266 26.7554 113.266 26.7558 113.266 26.7563C113.266 26.7567 113.266 26.7571 113.266 26.7576C113.266 26.758 113.266 26.7585 113.266 26.7589C113.266 26.7593 113.266 26.7598 113.266 26.7602C113.266 26.7606 113.266 26.7611 113.266 26.7615C113.266 26.762 113.266 26.7624 113.266 26.7628C113.266 26.7633 113.266 26.7637 113.266 26.7641C113.266 26.7646 113.266 26.765 113.266 26.7655C113.266 26.7659 113.266 26.7663 113.266 26.7668C113.266 26.7672 113.266 26.7676 113.266 26.7681C113.266 26.7685 113.266 26.7689 113.266 26.7694C113.266 26.7698 113.266 26.7703 113.266 26.7707C113.266 26.7711 113.266 26.7716 113.266 26.772C113.266 26.7724 113.266 26.7729 113.266 26.7733C113.266 26.7737 113.266 26.7742 113.266 26.7746C113.266 26.775 113.266 26.7755 113.266 26.7759C113.266 26.7763 113.266 26.7768 113.266 26.7772C113.266 26.7776 113.266 26.7781 113.266 26.7785C113.266 26.7789 113.266 26.7794 113.266 26.7798C113.266 26.7803 113.266 26.7807 113.266 26.7811C113.266 26.7815 113.266 26.782 113.266 26.7824C113.266 26.7829 113.266 26.7833 113.266 26.7837C113.266 26.7841 113.266 26.7846 113.266 26.785C113.266 26.7854 113.266 26.7859 113.266 26.7863C113.266 26.7867 113.266 26.7872 113.266 26.7876C113.266 26.788 113.266 26.7885 113.266 26.7889C113.266 26.7893 113.266 26.7898 113.266 26.7902C113.266 26.7906 113.266 26.7911 113.266 26.7915C113.266 26.7919 113.266 26.7924 113.266 26.7928C113.266 26.7932 113.266 26.7936 113.266 26.7941C113.266 26.7945 113.266 26.7949 113.266 26.7954C113.266 26.7958 113.266 26.7962 113.266 26.7967C113.266 26.7971 113.266 26.7975 113.266 26.798C113.266 26.7984 113.266 26.7988 113.266 26.7992C113.266 26.7997 113.266 26.8001 113.266 26.8005C113.266 26.801 113.266 26.8014 113.266 26.8018C113.266 26.8022 113.266 26.8027 113.266 26.8031C113.266 26.8035 113.266 26.804 113.266 26.8044C113.266 26.8048 113.266 26.8052 113.266 26.8057C113.266 26.8061 113.266 26.8065 113.266 26.807C113.266 26.8074 113.266 26.8078 113.266 26.8082C113.266 26.8087 113.266 26.8091 113.266 26.8095C113.266 26.8099 113.266 26.8104 113.266 26.8108C113.266 26.8112 113.266 26.8117 113.266 26.8121C113.266 26.8125 113.266 26.8129 113.266 26.8134C113.266 26.8138 113.266 26.8142 113.266 26.8146C113.266 26.8151 113.266 26.8155 113.266 26.8159C113.266 26.8163 113.266 26.8168 113.266 26.8172C113.266 26.8176 113.266 26.8181 113.266 26.8185C113.266 26.8189 113.266 26.8193 113.266 26.8198C113.266 26.8202 113.266 26.8206 113.266 26.821C113.266 26.8215 113.266 26.8219 113.266 26.8223C113.266 26.8227 113.266 26.8232 113.266 26.8236C113.266 26.824 113.266 26.8244 113.266 26.8248C113.266 26.8253 113.266 26.8257 113.266 26.8261C113.266 26.8265 113.266 26.827 113.266 26.8274C113.266 26.8278 113.266 26.8282 113.266 26.8287C113.266 26.8291 113.266 26.8295 113.266 26.8299C113.266 26.8304 113.266 26.8308 113.266 26.8312C113.266 26.8316 113.266 26.832 113.266 26.8325C113.266 26.8329 113.266 26.8333 113.266 26.8337C113.266 26.8342 113.266 26.8346 113.266 26.835C113.266 26.8354 113.266 26.8358 113.266 26.8363C113.266 26.8367 113.266 26.8371 113.266 26.8375C113.266 26.8379 113.266 26.8384 113.266 26.8388C113.266 26.8392 113.266 26.8396 113.266 26.8401C113.266 26.8405 113.266 26.8409 113.266 26.8413C113.266 26.8417 113.266 26.8422 113.266 26.8426C113.266 26.843 113.266 26.8434 113.266 26.8438C113.266 26.8443 113.266 26.8447 113.266 26.8451C113.266 26.8455 113.266 26.8459 113.266 26.8464C113.266 26.8468 113.266 26.8472 113.266 26.8476C113.266 26.848 113.266 26.8485 113.266 26.8489C113.266 26.8493 113.266 26.8497 113.266 26.8501C113.266 26.8505 113.266 26.851 113.266 26.8514C113.266 26.8518 113.266 26.8522 113.266 26.8526C113.266 26.8531 113.266 26.8535 113.266 26.8539C113.266 26.8543 113.266 26.8547 113.266 26.8551C113.266 26.8556 113.266 26.856 113.266 26.8564C113.266 26.8568 113.266 26.8572 113.266 26.8576C113.266 26.8581 113.266 26.8585 113.266 26.8589C113.266 26.8593 113.266 26.8597 113.266 26.8601C113.266 26.8606 113.266 26.861 113.266 26.8614C113.266 26.8618 113.266 26.8622 113.266 26.8626C113.266 26.8631 113.266 26.8635 113.266 26.8639C113.266 26.8643 113.266 26.8647 113.266 26.8651C113.266 26.8656 113.266 26.866 113.266 26.8664C113.266 26.8668 113.266 26.8672 113.266 26.8676C113.266 26.868 113.266 26.8685 113.266 26.8689C113.266 26.8693 113.266 26.8697 113.266 26.8701C113.266 26.8705 113.266 26.8709 113.266 26.8714C113.266 26.8718 113.266 26.8722 113.266 26.8726C113.266 26.873 113.266 26.8734 113.266 26.8738C113.266 26.8743 113.266 26.8747 113.266 26.8751C113.266 26.8755 113.266 26.8759 113.266 26.8763C113.266 26.8767 113.266 26.8771 113.266 26.8776C113.266 26.878 113.266 26.8784 113.266 26.8788C113.266 26.8792 113.266 26.8796 113.266 26.88C113.266 26.8804 113.266 26.8809 113.266 26.8813C113.266 26.8817 113.266 26.8821 113.266 26.8825C113.266 26.8829 113.266 26.8833 113.266 26.8837C113.266 26.8841 113.266 26.8846 113.266 26.885C113.266 26.8854 113.266 26.8858 113.266 26.8862C113.266 26.8866 113.266 26.887 113.266 26.8874C113.266 26.8878 113.266 26.8883 113.266 26.8887C113.266 26.8891 113.266 26.8895 113.266 26.8899C113.266 26.8903 113.266 26.8907 113.266 26.8911C113.266 26.8915 113.266 26.8919 113.266 26.8923C113.266 26.8928 113.266 26.8932 113.266 26.8936C113.266 26.894 113.266 26.8944 113.266 26.8948C113.266 26.8952 113.266 26.8956 113.266 26.896C113.266 26.8964 113.266 26.8968 113.266 26.8973C113.266 26.8977 113.266 26.8981 113.266 26.8985C113.266 26.8989 113.266 26.8993 113.266 26.8997C113.266 26.9001 113.266 26.9005 113.266 26.9009C113.266 26.9013 113.266 26.9017 113.266 26.9021C113.266 26.9025 113.266 26.903 113.266 26.9034C113.266 26.9038 113.266 26.9042 113.266 26.9046C113.266 26.905 113.266 26.9054 113.266 26.9058C113.266 26.9062 113.266 26.9066 113.266 26.907C113.266 26.9074 113.266 26.9078 113.266 26.9082C113.266 26.9086 113.266 26.909 113.266 26.9095C113.266 26.9099 113.266 26.9103 113.266 26.9107C113.266 26.9111 113.266 26.9115 113.266 26.9119C113.266 26.9123 113.266 26.9127 113.266 26.9131C113.266 26.9135 113.266 26.9139 113.266 26.9143C113.266 26.9147 113.266 26.9151 113.266 26.9155C113.266 26.9159 113.266 26.9163 113.266 26.9167C113.266 26.9171 113.266 26.9175 113.266 26.9179C113.266 26.9184 113.266 26.9188 113.266 26.9192C113.266 26.9196 113.266 26.92 113.266 26.9204C113.266 26.9208 113.266 26.9212 113.266 26.9216C113.266 26.922 113.266 26.9224 113.266 26.9228C113.266 26.9232 113.266 26.9236 113.266 26.924C113.266 26.9244 113.266 26.9248 113.266 26.9252C113.266 26.9256 113.266 26.926 113.266 26.9264C113.266 26.9268 113.266 26.9272 113.266 26.9276C113.266 26.928 113.266 26.9284 113.266 26.9288C113.266 26.9292 113.266 26.9296 113.266 26.93C113.266 26.9304 113.266 26.9308 113.266 26.9312C113.266 26.9316 113.266 26.932 113.266 26.9324C113.266 26.9328 113.266 26.9332 113.266 26.9336C113.266 26.934 113.266 26.9344 113.266 26.9348C113.266 26.9352 113.266 26.9356 113.266 26.936C113.266 26.9364 113.266 26.9368 113.266 26.9372C113.266 26.9376 113.266 26.938 113.266 26.9384C113.266 26.9388 113.266 26.9392 113.266 26.9396C113.266 26.94 113.266 26.9404 113.266 26.9408C113.266 26.9412 113.266 26.9416 113.266 26.942C113.266 26.9424 113.266 26.9428 113.266 26.9432C113.266 26.9436 113.266 26.944 113.266 26.9444C113.266 26.9448 113.266 26.9452 113.266 26.9456C113.266 26.946 113.266 26.9464 113.266 26.9468C113.266 26.9472 113.266 26.9476 113.266 26.948C113.266 26.9483 113.266 26.9487 113.266 26.9491C113.266 26.9495 113.266 26.9499 113.266 26.9503C113.266 26.9507 113.266 26.9511 113.266 26.9515C113.266 26.9519 113.266 26.9523 113.266 26.9527C113.266 26.9531 113.266 26.9535 113.266 26.9539C113.266 26.9543 113.266 26.9547 113.266 26.9551C113.266 26.9555 113.266 26.9559 113.266 26.9563C113.266 26.9567 113.266 26.957 113.266 26.9574C113.266 26.9578 113.266 26.9582 113.266 26.9586C113.266 26.959 113.266 26.9594 113.266 26.9598C113.266 26.9602 113.266 26.9606 113.266 26.961C113.266 26.9614 113.266 26.9618 113.266 26.9622C113.266 26.9626 113.266 26.963 113.266 26.9633C113.266 26.9637 113.266 26.9641 113.266 26.9645C113.266 26.9649 113.266 26.9653 113.266 26.9657C113.266 26.9661 113.266 26.9665 113.266 26.9669C113.266 26.9673 113.266 26.9677 113.266 26.9681C113.266 26.9685 113.266 26.9688 113.266 26.9692C113.266 26.9696 113.266 26.97 113.266 26.9704C113.266 26.9708 113.266 26.9712 113.266 26.9716C113.266 26.972 113.266 26.9724 113.266 26.9728C113.266 26.9731 113.266 26.9735 113.266 26.9739C113.266 26.9743 113.266 26.9747 113.266 26.9751C113.266 26.9755 113.266 26.9759 113.266 26.9763C113.266 26.9767 113.266 26.977 113.266 26.9774C113.266 26.9778 113.266 26.9782 113.266 26.9786C113.266 26.979 113.266 26.9794 113.266 26.9798C113.266 26.9802 113.266 26.9806 113.266 26.9809C113.266 26.9813 113.266 26.9817 113.266 26.9821C113.266 26.9825 113.266 26.9829 113.266 26.9833C113.266 26.9837 113.266 26.9841 113.266 26.9844C113.266 26.9848 113.266 26.9852 113.266 26.9856C113.266 26.986 113.266 26.9864 113.266 26.9868C113.266 26.9872 113.266 26.9875 113.266 26.9879C113.266 26.9883 113.266 26.9887 113.266 26.9891C113.266 26.9895 113.266 26.9899 113.266 26.9902C113.266 26.9906 113.266 26.991 113.266 26.9914C113.266 26.9918 113.266 26.9922 113.266 26.9926C113.266 26.993 113.266 26.9933 113.266 26.9937C113.266 26.9941 113.266 26.9945 113.266 26.9949C113.266 26.9953 113.266 26.9957 113.266 26.996C113.266 26.9964 113.266 26.9968 113.266 26.9972C113.266 26.9976 113.266 26.998 113.266 26.9984C113.266 26.9987 113.266 26.9991 113.266 26.9995C113.266 26.9999 113.266 27.0003 113.266 27.0007C113.266 27.001 113.266 27.0014 113.266 27.0018C113.266 27.0022 113.266 27.0026 113.266 27.003C113.266 27.0033 113.266 27.0037 113.266 27.0041C113.266 27.0045 113.266 27.0049 113.266 27.0053C113.266 27.0056 113.266 27.006 113.266 27.0064C113.266 27.0068 113.266 27.0072 113.266 27.0076C113.266 27.0079 113.266 27.0083 113.266 27.0087C113.266 27.0091 113.266 27.0095 113.266 27.0099C113.266 27.0102 113.266 27.0106 113.266 27.011C113.266 27.0114 113.266 27.0118 113.266 27.0121C113.266 27.0125 113.266 27.0129 113.266 27.0133C113.266 27.0137 113.266 27.014 113.266 27.0144C113.266 27.0148 113.266 27.0152 113.266 27.0156C113.266 27.016 113.266 27.0163 113.266 27.0167C113.266 27.0171 113.266 27.0175 113.266 27.0179C113.266 27.0182 113.266 27.0186 113.266 27.019C113.266 27.0194 113.266 27.0198 113.266 27.0201C113.266 27.0205 113.266 27.0209 113.266 27.0213C113.266 27.0217 113.266 27.022 113.266 27.0224C113.266 27.0228 113.266 27.0232 113.266 27.0235C113.266 27.0239 113.266 27.0243 113.266 27.0247C113.266 27.0251 113.266 27.0254 113.266 27.0258C113.266 27.0262 113.266 27.0266 113.266 27.027C113.266 27.0273 113.266 27.0277 113.266 27.0281C113.266 27.0285 113.266 27.0288 113.266 27.0292C113.266 27.0296 113.266 27.03 113.266 27.0303C113.266 27.0307 113.266 27.0311 113.266 27.0315C113.266 27.0319 113.266 27.0322 113.266 27.0326C113.266 27.033 113.266 27.0334 113.266 27.0337C113.266 27.0341 113.266 27.0345 113.266 27.0349C113.266 27.0352 113.266 27.0356 113.266 27.036C113.266 27.0364 113.266 27.0367 113.266 27.0371C113.266 27.0375 113.266 27.0379 113.266 27.0382C113.266 27.0386 113.266 27.039 113.266 27.0394C113.266 27.0397 113.266 27.0401 113.266 27.0405C113.266 27.0409 113.266 27.0412 113.266 27.0416C113.266 27.042 113.266 27.0424 113.266 27.0427C113.266 27.0431 113.266 27.0435 113.266 27.0439C113.266 27.0442 113.266 27.0446 113.266 27.045C113.266 27.0454 113.266 27.0457 113.266 27.0461C113.266 27.0465 113.266 27.0469 113.266 27.0472C113.266 27.0476 113.266 27.048 113.266 27.0483C113.266 27.0487 113.266 27.0491 113.266 27.0495C113.266 27.0498 113.266 27.0502 113.266 27.0506C113.266 27.051 113.266 27.0513 113.266 27.0517C113.266 27.0521 113.266 27.0524 113.266 27.0528C113.266 27.0532 113.266 27.0536 113.266 27.0539C113.266 27.0543 113.266 27.0547 113.266 27.055C113.266 27.0554 113.266 27.0558 113.266 27.0562C113.266 27.0565 113.266 27.0569 113.266 27.0573C113.266 27.0576 113.266 27.058 113.266 27.0584C113.266 27.0587 113.266 27.0591 113.266 27.0595C113.266 27.0599 113.266 27.0602 113.266 27.0606C113.266 27.061 113.266 27.0613 113.266 27.0617C113.266 27.0621 113.266 27.0624 113.266 27.0628C113.266 27.0632 113.266 27.0636 113.266 27.0639C113.266 27.0643 113.266 27.0647 113.266 27.065C113.266 27.0654 113.266 27.0658 113.266 27.0661C113.266 27.0665 113.266 27.0669 113.266 27.0672C113.266 27.0676 113.266 27.068 113.266 27.0683C113.266 27.0687 113.266 27.0691 113.266 27.0694C113.266 27.0698 113.266 27.0702 113.266 27.0705C113.266 27.0709 113.266 27.0713 113.266 27.0716C113.266 27.072 113.266 27.0724 113.266 27.0727C113.266 27.0731 113.266 27.0735 113.266 27.0738C113.266 27.0742 113.266 27.0746 113.266 27.0749C113.266 27.0753 113.266 27.0757 113.266 27.076C113.266 27.0764 113.266 27.0768 113.266 27.0771C113.266 27.0775 113.266 27.0779 113.266 27.0782C113.266 27.0786 113.266 27.079 113.266 27.0793C113.266 27.0797 113.266 27.0801 113.266 27.0804C113.266 27.0808 113.266 27.0812 113.266 27.0815C113.266 27.0819 113.266 27.0822 113.266 27.0826C113.266 27.083 113.266 27.0833 113.266 27.0837C113.266 27.0841 113.266 27.0844 113.266 27.0848C113.266 27.0852 113.266 27.0855 113.266 27.0859C113.266 27.0863 113.266 27.0866 113.266 27.087C113.266 27.0873 113.266 27.0877 113.266 27.0881C113.266 27.0884 113.266 27.0888 113.266 27.0892C113.266 27.0895 113.266 27.0899 113.266 27.0902C113.266 27.0906 113.266 27.091 113.266 27.0913C113.266 27.0917 113.266 27.0921 113.266 27.0924C113.266 27.0928 113.266 27.0931 113.266 27.0935C113.266 27.0939 113.266 27.0942 113.266 27.0946C113.266 27.0949 113.266 27.0953 113.266 27.0957C113.266 27.096 113.266 27.0964 113.266 27.0967C113.266 27.0971 113.266 27.0975 113.266 27.0978C113.266 27.0982 113.266 27.0985 113.266 27.0989C113.266 27.0993 113.266 27.0996 113.266 27.1C113.266 27.1003 113.266 27.1007 113.266 27.1011C113.266 27.1014 113.266 27.1018 113.266 27.1021C113.266 27.1025 113.266 27.1029 113.266 27.1032C113.266 27.1036 113.266 27.1039 113.266 27.1043C113.266 27.1047 113.266 27.105 113.266 27.1054C113.266 27.1057 113.266 27.1061 113.266 27.1064C113.266 27.1068 113.266 27.1072 113.266 27.1075C113.266 27.1079 113.266 27.1082 113.266 27.1086C113.266 27.109 113.266 27.1093 113.266 27.1097C113.266 27.11 113.266 27.1104 113.266 27.1107C113.266 27.1111 113.266 27.1115 113.266 27.1118C113.266 27.1122 113.266 27.1125 113.266 27.1129C113.266 27.1132 113.266 27.1136 113.266 27.114C113.266 27.1143 113.266 27.1147 113.266 27.115C113.266 27.1154 113.266 27.1157 113.266 27.1161C113.266 27.1164 113.266 27.1168 113.266 27.1172C113.266 27.1175 113.266 27.1179 113.266 27.1182C113.266 27.1186 113.266 27.1189 113.266 27.1193C113.266 27.1196 113.266 27.12 113.266 27.1203C113.266 27.1207 113.266 27.1211 113.266 27.1214C113.266 27.1218 113.266 27.1221 113.266 27.1225C113.266 27.1228 113.266 27.1232 113.266 27.1235C113.266 27.1239 113.266 27.1242 113.266 27.1246C113.266 27.125 113.266 27.1253 113.266 27.1257C113.266 27.126 113.266 27.1264 113.266 27.1267C113.266 27.1271 113.266 27.1274 113.266 27.1278C113.266 27.1281 113.266 27.1285 113.266 27.1288C113.266 27.1292 113.266 27.1295 113.266 27.1299C113.266 27.1302 113.266 27.1306 113.266 27.1309C113.266 27.1313 113.266 27.1316 113.266 27.132H121.266C121.266 27.1316 121.266 27.1313 121.266 27.1309C121.266 27.1306 121.266 27.1302 121.266 27.1299C121.266 27.1295 121.266 27.1292 121.266 27.1288C121.266 27.1285 121.266 27.1281 121.266 27.1278C121.266 27.1274 121.266 27.1271 121.266 27.1267C121.266 27.1264 121.266 27.126 121.266 27.1257C121.266 27.1253 121.266 27.125 121.266 27.1246C121.266 27.1242 121.266 27.1239 121.266 27.1235C121.266 27.1232 121.266 27.1228 121.266 27.1225C121.266 27.1221 121.266 27.1218 121.266 27.1214C121.266 27.1211 121.266 27.1207 121.266 27.1203C121.266 27.12 121.266 27.1196 121.266 27.1193C121.266 27.1189 121.266 27.1186 121.266 27.1182C121.266 27.1179 121.266 27.1175 121.266 27.1172C121.266 27.1168 121.266 27.1164 121.266 27.1161C121.266 27.1157 121.266 27.1154 121.266 27.115C121.266 27.1147 121.266 27.1143 121.266 27.114C121.266 27.1136 121.266 27.1132 121.266 27.1129C121.266 27.1125 121.266 27.1122 121.266 27.1118C121.266 27.1115 121.266 27.1111 121.266 27.1107C121.266 27.1104 121.266 27.11 121.266 27.1097C121.266 27.1093 121.266 27.109 121.266 27.1086C121.266 27.1082 121.266 27.1079 121.266 27.1075C121.266 27.1072 121.266 27.1068 121.266 27.1064C121.266 27.1061 121.266 27.1057 121.266 27.1054C121.266 27.105 121.266 27.1047 121.266 27.1043C121.266 27.1039 121.266 27.1036 121.266 27.1032C121.266 27.1029 121.266 27.1025 121.266 27.1021C121.266 27.1018 121.266 27.1014 121.266 27.1011C121.266 27.1007 121.266 27.1003 121.266 27.1C121.266 27.0996 121.266 27.0993 121.266 27.0989C121.266 27.0985 121.266 27.0982 121.266 27.0978C121.266 27.0975 121.266 27.0971 121.266 27.0967C121.266 27.0964 121.266 27.096 121.266 27.0957C121.266 27.0953 121.266 27.0949 121.266 27.0946C121.266 27.0942 121.266 27.0939 121.266 27.0935C121.266 27.0931 121.266 27.0928 121.266 27.0924C121.266 27.0921 121.266 27.0917 121.266 27.0913C121.266 27.091 121.266 27.0906 121.266 27.0902C121.266 27.0899 121.266 27.0895 121.266 27.0892C121.266 27.0888 121.266 27.0884 121.266 27.0881C121.266 27.0877 121.266 27.0873 121.266 27.087C121.266 27.0866 121.266 27.0863 121.266 27.0859C121.266 27.0855 121.266 27.0852 121.266 27.0848C121.266 27.0844 121.266 27.0841 121.266 27.0837C121.266 27.0833 121.266 27.083 121.266 27.0826C121.266 27.0822 121.266 27.0819 121.266 27.0815C121.266 27.0812 121.266 27.0808 121.266 27.0804C121.266 27.0801 121.266 27.0797 121.266 27.0793C121.266 27.079 121.266 27.0786 121.266 27.0782C121.266 27.0779 121.266 27.0775 121.266 27.0771C121.266 27.0768 121.266 27.0764 121.266 27.076C121.266 27.0757 121.266 27.0753 121.266 27.0749C121.266 27.0746 121.266 27.0742 121.266 27.0738C121.266 27.0735 121.266 27.0731 121.266 27.0727C121.266 27.0724 121.266 27.072 121.266 27.0716C121.266 27.0713 121.266 27.0709 121.266 27.0705C121.266 27.0702 121.266 27.0698 121.266 27.0694C121.266 27.0691 121.266 27.0687 121.266 27.0683C121.266 27.068 121.266 27.0676 121.266 27.0672C121.266 27.0669 121.266 27.0665 121.266 27.0661C121.266 27.0658 121.266 27.0654 121.266 27.065C121.266 27.0647 121.266 27.0643 121.266 27.0639C121.266 27.0636 121.266 27.0632 121.266 27.0628C121.266 27.0624 121.266 27.0621 121.266 27.0617C121.266 27.0613 121.266 27.061 121.266 27.0606C121.266 27.0602 121.266 27.0599 121.266 27.0595C121.266 27.0591 121.266 27.0587 121.266 27.0584C121.266 27.058 121.266 27.0576 121.266 27.0573C121.266 27.0569 121.266 27.0565 121.266 27.0562C121.266 27.0558 121.266 27.0554 121.266 27.055C121.266 27.0547 121.266 27.0543 121.266 27.0539C121.266 27.0536 121.266 27.0532 121.266 27.0528C121.266 27.0524 121.266 27.0521 121.266 27.0517C121.266 27.0513 121.266 27.051 121.266 27.0506C121.266 27.0502 121.266 27.0498 121.266 27.0495C121.266 27.0491 121.266 27.0487 121.266 27.0483C121.266 27.048 121.266 27.0476 121.266 27.0472C121.266 27.0469 121.266 27.0465 121.266 27.0461C121.266 27.0457 121.266 27.0454 121.266 27.045C121.266 27.0446 121.266 27.0442 121.266 27.0439C121.266 27.0435 121.266 27.0431 121.266 27.0427C121.266 27.0424 121.266 27.042 121.266 27.0416C121.266 27.0412 121.266 27.0409 121.266 27.0405C121.266 27.0401 121.266 27.0397 121.266 27.0394C121.266 27.039 121.266 27.0386 121.266 27.0382C121.266 27.0379 121.266 27.0375 121.266 27.0371C121.266 27.0367 121.266 27.0364 121.266 27.036C121.266 27.0356 121.266 27.0352 121.266 27.0349C121.266 27.0345 121.266 27.0341 121.266 27.0337C121.266 27.0334 121.266 27.033 121.266 27.0326C121.266 27.0322 121.266 27.0319 121.266 27.0315C121.266 27.0311 121.266 27.0307 121.266 27.0303C121.266 27.03 121.266 27.0296 121.266 27.0292C121.266 27.0288 121.266 27.0285 121.266 27.0281C121.266 27.0277 121.266 27.0273 121.266 27.027C121.266 27.0266 121.266 27.0262 121.266 27.0258C121.266 27.0254 121.266 27.0251 121.266 27.0247C121.266 27.0243 121.266 27.0239 121.266 27.0235C121.266 27.0232 121.266 27.0228 121.266 27.0224C121.266 27.022 121.266 27.0217 121.266 27.0213C121.266 27.0209 121.266 27.0205 121.266 27.0201C121.266 27.0198 121.266 27.0194 121.266 27.019C121.266 27.0186 121.266 27.0182 121.266 27.0179C121.266 27.0175 121.266 27.0171 121.266 27.0167C121.266 27.0163 121.266 27.016 121.266 27.0156C121.266 27.0152 121.266 27.0148 121.266 27.0144C121.266 27.014 121.266 27.0137 121.266 27.0133C121.266 27.0129 121.266 27.0125 121.266 27.0121C121.266 27.0118 121.266 27.0114 121.266 27.011C121.266 27.0106 121.266 27.0102 121.266 27.0099C121.266 27.0095 121.266 27.0091 121.266 27.0087C121.266 27.0083 121.266 27.0079 121.266 27.0076C121.266 27.0072 121.266 27.0068 121.266 27.0064C121.266 27.006 121.266 27.0056 121.266 27.0053C121.266 27.0049 121.266 27.0045 121.266 27.0041C121.266 27.0037 121.266 27.0033 121.266 27.003C121.266 27.0026 121.266 27.0022 121.266 27.0018C121.266 27.0014 121.266 27.001 121.266 27.0007C121.266 27.0003 121.266 26.9999 121.266 26.9995C121.266 26.9991 121.266 26.9987 121.266 26.9984C121.266 26.998 121.266 26.9976 121.266 26.9972C121.266 26.9968 121.266 26.9964 121.266 26.996C121.266 26.9957 121.266 26.9953 121.266 26.9949C121.266 26.9945 121.266 26.9941 121.266 26.9937C121.266 26.9933 121.266 26.993 121.266 26.9926C121.266 26.9922 121.266 26.9918 121.266 26.9914C121.266 26.991 121.266 26.9906 121.266 26.9902C121.266 26.9899 121.266 26.9895 121.266 26.9891C121.266 26.9887 121.266 26.9883 121.266 26.9879C121.266 26.9875 121.266 26.9872 121.266 26.9868C121.266 26.9864 121.266 26.986 121.266 26.9856C121.266 26.9852 121.266 26.9848 121.266 26.9844C121.266 26.9841 121.266 26.9837 121.266 26.9833C121.266 26.9829 121.266 26.9825 121.266 26.9821C121.266 26.9817 121.266 26.9813 121.266 26.9809C121.266 26.9806 121.266 26.9802 121.266 26.9798C121.266 26.9794 121.266 26.979 121.266 26.9786C121.266 26.9782 121.266 26.9778 121.266 26.9774C121.266 26.977 121.266 26.9767 121.266 26.9763C121.266 26.9759 121.266 26.9755 121.266 26.9751C121.266 26.9747 121.266 26.9743 121.266 26.9739C121.266 26.9735 121.266 26.9731 121.266 26.9728C121.266 26.9724 121.266 26.972 121.266 26.9716C121.266 26.9712 121.266 26.9708 121.266 26.9704C121.266 26.97 121.266 26.9696 121.266 26.9692C121.266 26.9688 121.266 26.9685 121.266 26.9681C121.266 26.9677 121.266 26.9673 121.266 26.9669C121.266 26.9665 121.266 26.9661 121.266 26.9657C121.266 26.9653 121.266 26.9649 121.266 26.9645C121.266 26.9641 121.266 26.9637 121.266 26.9633C121.266 26.963 121.266 26.9626 121.266 26.9622C121.266 26.9618 121.266 26.9614 121.266 26.961C121.266 26.9606 121.266 26.9602 121.266 26.9598C121.266 26.9594 121.266 26.959 121.266 26.9586C121.266 26.9582 121.266 26.9578 121.266 26.9574C121.266 26.957 121.266 26.9567 121.266 26.9563C121.266 26.9559 121.266 26.9555 121.266 26.9551C121.266 26.9547 121.266 26.9543 121.266 26.9539C121.266 26.9535 121.266 26.9531 121.266 26.9527C121.266 26.9523 121.266 26.9519 121.266 26.9515C121.266 26.9511 121.266 26.9507 121.266 26.9503C121.266 26.9499 121.266 26.9495 121.266 26.9491C121.266 26.9487 121.266 26.9483 121.266 26.948C121.266 26.9476 121.266 26.9472 121.266 26.9468C121.266 26.9464 121.266 26.946 121.266 26.9456C121.266 26.9452 121.266 26.9448 121.266 26.9444C121.266 26.944 121.266 26.9436 121.266 26.9432C121.266 26.9428 121.266 26.9424 121.266 26.942C121.266 26.9416 121.266 26.9412 121.266 26.9408C121.266 26.9404 121.266 26.94 121.266 26.9396C121.266 26.9392 121.266 26.9388 121.266 26.9384C121.266 26.938 121.266 26.9376 121.266 26.9372C121.266 26.9368 121.266 26.9364 121.266 26.936C121.266 26.9356 121.266 26.9352 121.266 26.9348C121.266 26.9344 121.266 26.934 121.266 26.9336C121.266 26.9332 121.266 26.9328 121.266 26.9324C121.266 26.932 121.266 26.9316 121.266 26.9312C121.266 26.9308 121.266 26.9304 121.266 26.93C121.266 26.9296 121.266 26.9292 121.266 26.9288C121.266 26.9284 121.266 26.928 121.266 26.9276C121.266 26.9272 121.266 26.9268 121.266 26.9264C121.266 26.926 121.266 26.9256 121.266 26.9252C121.266 26.9248 121.266 26.9244 121.266 26.924C121.266 26.9236 121.266 26.9232 121.266 26.9228C121.266 26.9224 121.266 26.922 121.266 26.9216C121.266 26.9212 121.266 26.9208 121.266 26.9204C121.266 26.92 121.266 26.9196 121.266 26.9192C121.266 26.9188 121.266 26.9184 121.266 26.9179C121.266 26.9175 121.266 26.9171 121.266 26.9167C121.266 26.9163 121.266 26.9159 121.266 26.9155C121.266 26.9151 121.266 26.9147 121.266 26.9143C121.266 26.9139 121.266 26.9135 121.266 26.9131C121.266 26.9127 121.266 26.9123 121.266 26.9119C121.266 26.9115 121.266 26.9111 121.266 26.9107C121.266 26.9103 121.266 26.9099 121.266 26.9095C121.266 26.909 121.266 26.9086 121.266 26.9082C121.266 26.9078 121.266 26.9074 121.266 26.907C121.266 26.9066 121.266 26.9062 121.266 26.9058C121.266 26.9054 121.266 26.905 121.266 26.9046C121.266 26.9042 121.266 26.9038 121.266 26.9034C121.266 26.903 121.266 26.9025 121.266 26.9021C121.266 26.9017 121.266 26.9013 121.266 26.9009C121.266 26.9005 121.266 26.9001 121.266 26.8997C121.266 26.8993 121.266 26.8989 121.266 26.8985C121.266 26.8981 121.266 26.8977 121.266 26.8973C121.266 26.8968 121.266 26.8964 121.266 26.896C121.266 26.8956 121.266 26.8952 121.266 26.8948C121.266 26.8944 121.266 26.894 121.266 26.8936C121.266 26.8932 121.266 26.8928 121.266 26.8923C121.266 26.8919 121.266 26.8915 121.266 26.8911C121.266 26.8907 121.266 26.8903 121.266 26.8899C121.266 26.8895 121.266 26.8891 121.266 26.8887C121.266 26.8883 121.266 26.8878 121.266 26.8874C121.266 26.887 121.266 26.8866 121.266 26.8862C121.266 26.8858 121.266 26.8854 121.266 26.885C121.266 26.8846 121.266 26.8841 121.266 26.8837C121.266 26.8833 121.266 26.8829 121.266 26.8825C121.266 26.8821 121.266 26.8817 121.266 26.8813C121.266 26.8809 121.266 26.8804 121.266 26.88C121.266 26.8796 121.266 26.8792 121.266 26.8788C121.266 26.8784 121.266 26.878 121.266 26.8776C121.266 26.8771 121.266 26.8767 121.266 26.8763C121.266 26.8759 121.266 26.8755 121.266 26.8751C121.266 26.8747 121.266 26.8743 121.266 26.8738C121.266 26.8734 121.266 26.873 121.266 26.8726C121.266 26.8722 121.266 26.8718 121.266 26.8714C121.266 26.8709 121.266 26.8705 121.266 26.8701C121.266 26.8697 121.266 26.8693 121.266 26.8689C121.266 26.8685 121.266 26.868 121.266 26.8676C121.266 26.8672 121.266 26.8668 121.266 26.8664C121.266 26.866 121.266 26.8656 121.266 26.8651C121.266 26.8647 121.266 26.8643 121.266 26.8639C121.266 26.8635 121.266 26.8631 121.266 26.8626C121.266 26.8622 121.266 26.8618 121.266 26.8614C121.266 26.861 121.266 26.8606 121.266 26.8601C121.266 26.8597 121.266 26.8593 121.266 26.8589C121.266 26.8585 121.266 26.8581 121.266 26.8576C121.266 26.8572 121.266 26.8568 121.266 26.8564C121.266 26.856 121.266 26.8556 121.266 26.8551C121.266 26.8547 121.266 26.8543 121.266 26.8539C121.266 26.8535 121.266 26.8531 121.266 26.8526C121.266 26.8522 121.266 26.8518 121.266 26.8514C121.266 26.851 121.266 26.8505 121.266 26.8501C121.266 26.8497 121.266 26.8493 121.266 26.8489C121.266 26.8485 121.266 26.848 121.266 26.8476C121.266 26.8472 121.266 26.8468 121.266 26.8464C121.266 26.8459 121.266 26.8455 121.266 26.8451C121.266 26.8447 121.266 26.8443 121.266 26.8438C121.266 26.8434 121.266 26.843 121.266 26.8426C121.266 26.8422 121.266 26.8417 121.266 26.8413C121.266 26.8409 121.266 26.8405 121.266 26.8401C121.266 26.8396 121.266 26.8392 121.266 26.8388C121.266 26.8384 121.266 26.8379 121.266 26.8375C121.266 26.8371 121.266 26.8367 121.266 26.8363C121.266 26.8358 121.266 26.8354 121.266 26.835C121.266 26.8346 121.266 26.8342 121.266 26.8337C121.266 26.8333 121.266 26.8329 121.266 26.8325C121.266 26.832 121.266 26.8316 121.266 26.8312C121.266 26.8308 121.266 26.8304 121.266 26.8299C121.266 26.8295 121.266 26.8291 121.266 26.8287C121.266 26.8282 121.266 26.8278 121.266 26.8274C121.266 26.827 121.266 26.8265 121.266 26.8261C121.266 26.8257 121.266 26.8253 121.266 26.8248C121.266 26.8244 121.266 26.824 121.266 26.8236C121.266 26.8232 121.266 26.8227 121.266 26.8223C121.266 26.8219 121.266 26.8215 121.266 26.821C121.266 26.8206 121.266 26.8202 121.266 26.8198C121.266 26.8193 121.266 26.8189 121.266 26.8185C121.266 26.8181 121.266 26.8176 121.266 26.8172C121.266 26.8168 121.266 26.8163 121.266 26.8159C121.266 26.8155 121.266 26.8151 121.266 26.8146C121.266 26.8142 121.266 26.8138 121.266 26.8134C121.266 26.8129 121.266 26.8125 121.266 26.8121C121.266 26.8117 121.266 26.8112 121.266 26.8108C121.266 26.8104 121.266 26.8099 121.266 26.8095C121.266 26.8091 121.266 26.8087 121.266 26.8082C121.266 26.8078 121.266 26.8074 121.266 26.807C121.266 26.8065 121.266 26.8061 121.266 26.8057C121.266 26.8052 121.266 26.8048 121.266 26.8044C121.266 26.804 121.266 26.8035 121.266 26.8031C121.266 26.8027 121.266 26.8022 121.266 26.8018C121.266 26.8014 121.266 26.801 121.266 26.8005C121.266 26.8001 121.266 26.7997 121.266 26.7992C121.266 26.7988 121.266 26.7984 121.266 26.798C121.266 26.7975 121.266 26.7971 121.266 26.7967C121.266 26.7962 121.266 26.7958 121.266 26.7954C121.266 26.7949 121.266 26.7945 121.266 26.7941C121.266 26.7936 121.266 26.7932 121.266 26.7928C121.266 26.7924 121.266 26.7919 121.266 26.7915C121.266 26.7911 121.266 26.7906 121.266 26.7902C121.266 26.7898 121.266 26.7893 121.266 26.7889C121.266 26.7885 121.266 26.788 121.266 26.7876C121.266 26.7872 121.266 26.7867 121.266 26.7863C121.266 26.7859 121.266 26.7854 121.266 26.785C121.266 26.7846 121.266 26.7841 121.266 26.7837C121.266 26.7833 121.266 26.7829 121.266 26.7824C121.266 26.782 121.266 26.7815 121.266 26.7811C121.266 26.7807 121.266 26.7803 121.266 26.7798C121.266 26.7794 121.266 26.7789 121.266 26.7785C121.266 26.7781 121.266 26.7776 121.266 26.7772C121.266 26.7768 121.266 26.7763 121.266 26.7759C121.266 26.7755 121.266 26.775 121.266 26.7746C121.266 26.7742 121.266 26.7737 121.266 26.7733C121.266 26.7729 121.266 26.7724 121.266 26.772C121.266 26.7716 121.266 26.7711 121.266 26.7707C121.266 26.7703 121.266 26.7698 121.266 26.7694C121.266 26.7689 121.266 26.7685 121.266 26.7681C121.266 26.7676 121.266 26.7672 121.266 26.7668C121.266 26.7663 121.266 26.7659 121.266 26.7655C121.266 26.765 121.266 26.7646 121.266 26.7641C121.266 26.7637 121.266 26.7633 121.266 26.7628C121.266 26.7624 121.266 26.762 121.266 26.7615C121.266 26.7611 121.266 26.7606 121.266 26.7602C121.266 26.7598 121.266 26.7593 121.266 26.7589C121.266 26.7585 121.266 26.758 121.266 26.7576C121.266 26.7571 121.266 26.7567 121.266 26.7563C121.266 26.7558 121.266 26.7554 121.266 26.7549C121.266 26.7545 121.266 26.7541 121.266 26.7536C121.266 26.7532 121.266 26.7528 121.266 26.7523C121.266 26.7519 121.266 26.7514 121.266 26.751C121.266 26.7506 121.266 26.7501 121.266 26.7497C121.266 26.7492 121.266 26.7488 121.266 26.7484C121.266 26.7479 121.266 26.7475 121.266 26.747C121.266 26.7466 121.266 26.7462 121.266 26.7457C121.266 26.7453 121.266 26.7448 121.266 26.7444C121.266 26.7439 121.266 26.7435 121.266 26.7431C121.266 26.7426 121.266 26.7422 121.266 26.7417C121.266 26.7413 121.266 26.7409 121.266 26.7404C121.266 26.74 121.266 26.7395 121.266 26.7391C121.266 26.7386 121.266 26.7382 121.266 26.7378C121.266 26.7373 121.266 26.7369 121.266 26.7364C121.266 26.736 121.266 26.7355 121.266 26.7351C121.266 26.7347 121.266 26.7342 121.266 26.7338C121.266 26.7333 121.266 26.7329 121.266 26.7324C121.266 26.732 121.266 26.7316 121.266 26.7311C121.266 26.7307 121.266 26.7302 121.266 26.7298C121.266 26.7293 121.266 26.7289 121.266 26.7284C121.266 26.728 121.266 26.7276 121.266 26.7271C121.266 26.7267 121.266 26.7262 121.266 26.7258C121.266 26.7253 121.266 26.7249 121.266 26.7244C121.266 26.724 121.266 26.7236 121.266 26.7231C121.266 26.7227 121.266 26.7222 121.266 26.7218C121.266 26.7213 121.266 26.7209 121.266 26.7204C121.266 26.72 121.266 26.7195 121.266 26.7191C121.266 26.7186 121.266 26.7182 121.266 26.7178C121.266 26.7173 121.266 26.7169 121.266 26.7164C121.266 26.716 121.266 26.7155 121.266 26.7151C121.266 26.7146 121.266 26.7142 121.266 26.7137C121.266 26.7133 121.266 26.7128 121.266 26.7124C121.266 26.7119 121.266 26.7115 121.266 26.711C121.266 26.7106 121.266 26.7102 121.266 26.7097C121.266 26.7093 121.266 26.7088 121.266 26.7084C121.266 26.7079 121.266 26.7075 121.266 26.707C121.266 26.7066 121.266 26.7061 121.266 26.7057C121.266 26.7052 121.266 26.7048 121.266 26.7043C121.266 26.7039 121.266 26.7034 121.266 26.703C121.266 26.7025 121.266 26.7021 121.266 26.7016C121.266 26.7012 121.266 26.7007 121.266 26.7003C121.266 26.6998 121.266 26.6994 121.266 26.6989C121.266 26.6985 121.266 26.698 121.266 26.6976C121.266 26.6971 121.266 26.6967 121.266 26.6962C121.266 26.6958 121.266 26.6953 121.266 26.6949C121.266 26.6944 121.266 26.694 121.266 26.6935C121.266 26.6931 121.266 26.6926 121.266 26.6922C121.266 26.6917 121.266 26.6912 121.266 26.6908C121.266 26.6903 121.266 26.6899 121.266 26.6894C121.266 26.689 121.266 26.6885 121.266 26.6881C121.266 26.6876 121.266 26.6872 121.266 26.6867C121.266 26.6863 121.266 26.6858 121.266 26.6854C121.266 26.6849 121.266 26.6845 121.266 26.684C121.266 26.6835 121.266 26.6831 121.266 26.6826C121.266 26.6822 121.266 26.6817 121.266 26.6813C121.266 26.6808 121.266 26.6804 121.266 26.6799C121.266 26.6795 121.266 26.679 121.266 26.6786C121.266 26.6781 121.266 26.6776 121.266 26.6772C121.266 26.6767 121.266 26.6763 121.266 26.6758C121.266 26.6754 121.266 26.6749 121.266 26.6745C121.266 26.674 121.266 26.6735 121.266 26.6731C121.266 26.6726 121.266 26.6722 121.266 26.6717C121.266 26.6713 121.266 26.6708 121.266 26.6704C121.266 26.6699 121.266 26.6694 121.266 26.669C121.266 26.6685 121.266 26.6681 121.266 26.6676C121.266 26.6672 121.266 26.6667 121.266 26.6663C121.266 26.6658 121.266 26.6653 121.266 26.6649C121.266 26.6644 121.266 26.664 121.266 26.6635C121.266 26.663 121.266 26.6626 121.266 26.6621C121.266 26.6617 121.266 26.6612 121.266 26.6608C121.266 26.6603 121.266 26.6598 121.266 26.6594C121.266 26.6589 121.266 26.6585 121.266 26.658C121.266 26.6575 121.266 26.6571 121.266 26.6566C121.266 26.6562 121.266 26.6557 121.266 26.6553C121.266 26.6548 121.266 26.6543 121.266 26.6539C121.266 26.6534 121.266 26.653 121.266 26.6525C121.266 26.652 121.266 26.6516 121.266 26.6511C121.266 26.6507 121.266 26.6502 121.266 26.6497C121.266 26.6493 121.266 26.6488 121.266 26.6484C121.266 26.6479 121.266 26.6474 121.266 26.647C121.266 26.6465 121.266 26.6461 121.266 26.6456C121.266 26.6451 121.266 26.6447 121.266 26.6442C121.266 26.6437 121.266 26.6433 121.266 26.6428C121.266 26.6424 121.266 26.6419 121.266 26.6414C121.266 26.641 121.266 26.6405 121.266 26.6401C121.266 26.6396 121.266 26.6391 121.266 26.6387C121.266 26.6382 121.266 26.6377 121.266 26.6373C121.266 26.6368 121.266 26.6363 121.266 26.6359C121.266 26.6354 121.266 26.635 121.266 26.6345C121.266 26.634 121.266 26.6336 121.266 26.6331C121.266 26.6326 121.266 26.6322 121.266 26.6317C121.266 26.6313 121.266 26.6308 121.266 26.6303C121.266 26.6299 121.266 26.6294 121.266 26.6289C121.266 26.6285 121.266 26.628 121.266 26.6275C121.266 26.6271 121.266 26.6266 121.266 26.6261C121.266 26.6257 121.266 26.6252 121.266 26.6247C121.266 26.6243 121.266 26.6238 121.266 26.6234C121.266 26.6229 121.266 26.6224 121.266 26.622C121.266 26.6215 121.266 26.621 121.266 26.6206C121.266 26.6201 121.266 26.6196 121.266 26.6192C121.266 26.6187 121.266 26.6182 121.266 26.6178C121.266 26.6173 121.266 26.6168 121.266 26.6164C121.266 26.6159 121.266 26.6154 121.266 26.615C121.266 26.6145 121.266 26.614 121.266 26.6136C121.266 26.6131 121.266 26.6126 121.266 26.6122C121.266 26.6117 121.266 26.6112 121.266 26.6107C121.266 26.6103 121.266 26.6098 121.266 26.6093C121.266 26.6089 121.266 26.6084 121.266 26.6079C121.266 26.6075 121.266 26.607 121.266 26.6065C121.266 26.6061 121.266 26.6056 121.266 26.6051C121.266 26.6047 121.266 26.6042 121.266 26.6037C121.266 26.6032 121.266 26.6028 121.266 26.6023C121.266 26.6018 121.266 26.6014 121.266 26.6009C121.266 26.6004 121.266 26.6 121.266 26.5995C121.266 26.599 121.266 26.5985 121.266 26.5981C121.266 26.5976 121.266 26.5971 121.266 26.5967C121.266 26.5962 121.266 26.5957 121.266 26.5953C121.266 26.5948 121.266 26.5943 121.266 26.5938C121.266 26.5934 121.266 26.5929 121.266 26.5924C121.266 26.592 121.266 26.5915 121.266 26.591C121.266 26.5905 121.266 26.5901 121.266 26.5896C121.266 26.5891 121.266 26.5886 121.266 26.5882C121.266 26.5877 121.266 26.5872 121.266 26.5868C121.266 26.5863 121.266 26.5858 121.266 26.5853C121.266 26.5849 121.266 26.5844 121.266 26.5839C121.266 26.5834 121.266 26.583 121.266 26.5825C121.266 26.582 121.266 26.5816 121.266 26.5811C121.266 26.5806 121.266 26.5801 121.266 26.5797C121.266 26.5792 121.266 26.5787 121.266 26.5782C121.266 26.5778 121.266 26.5773 121.266 26.5768C121.266 26.5763 121.266 26.5759 121.266 26.5754C121.266 26.5749 121.266 26.5744 121.266 26.574C121.266 26.5735 121.266 26.573 121.266 26.5725C121.266 26.5721 121.266 26.5716 121.266 26.5711C121.266 26.5706 121.266 26.5702 121.266 26.5697C121.266 26.5692 121.266 26.5687 121.266 26.5683C121.266 26.5678 121.266 26.5673 121.266 26.5668C121.266 26.5663 121.266 26.5659 121.266 26.5654C121.266 26.5649 121.266 26.5644 121.266 26.564C121.266 26.5635 121.266 26.563 121.266 26.5625C121.266 26.5621 121.266 26.5616 121.266 26.5611C121.266 26.5606 121.266 26.5601 121.266 26.5597C121.266 26.5592 121.266 26.5587 121.266 26.5582C121.266 26.5578 121.266 26.5573 121.266 26.5568C121.266 26.5563 121.266 26.5558 121.266 26.5554C121.266 26.5549 121.266 26.5544 121.266 26.5539C121.266 26.5534 121.266 26.553 121.266 26.5525C121.266 26.552 121.266 26.5515 121.266 26.5511C121.266 26.5506 121.266 26.5501 121.266 26.5496C121.266 26.5491 121.266 26.5487 121.266 26.5482C121.266 26.5477 121.266 26.5472 121.266 26.5467C121.266 26.5462 121.266 26.5458 121.266 26.5453C121.266 26.5448 121.266 26.5443 121.266 26.5438C121.266 26.5434 121.266 26.5429 121.266 26.5424C121.266 26.5419 121.266 26.5414 121.266 26.541C121.266 26.5405 121.266 26.54 121.266 26.5395C121.266 26.539 121.266 26.5386 121.266 26.5381C121.266 26.5376 121.266 26.5371 121.266 26.5366C121.266 26.5361 121.266 26.5357 121.266 26.5352C121.266 26.5347 121.266 26.5342 121.266 26.5337C121.266 26.5332 121.266 26.5328 121.266 26.5323C121.266 26.5318 121.266 26.5313 121.266 26.5308C121.266 26.5303 121.266 26.5299 121.266 26.5294C121.266 26.5289 121.266 26.5284 121.266 26.5279C121.266 26.5274 121.266 26.527 121.266 26.5265C121.266 26.526 121.266 26.5255 121.266 26.525C121.266 26.5245 121.266 26.5241 121.266 26.5236C121.266 26.5231 121.266 26.5226 121.266 26.5221C121.266 26.5216 121.266 26.5211 121.266 26.5207C121.266 26.5202 121.266 26.5197 121.266 26.5192C121.266 26.5187 121.266 26.5182 121.266 26.5177C121.266 26.5173 121.266 26.5168 121.266 26.5163C121.266 26.5158 121.266 26.5153 121.266 26.5148C121.266 26.5143 121.266 26.5139 121.266 26.5134C121.266 26.5129 121.266 26.5124 121.266 26.5119C121.266 26.5114 121.266 26.5109 121.266 26.5104C121.266 26.51 121.266 26.5095 121.266 26.509C121.266 26.5085 121.266 26.508 121.266 26.5075C121.266 26.507 121.266 26.5065 121.266 26.5061C121.266 26.5056 121.266 26.5051 121.266 26.5046C121.266 26.5041 121.266 26.5036 121.266 26.5031C121.266 26.5026 121.266 26.5021 121.266 26.5017C121.266 26.5012 121.266 26.5007 121.266 26.5002C121.266 26.4997 121.266 26.4992 121.266 26.4987C121.266 26.4982 121.266 26.4977 121.266 26.4973C121.266 26.4968 121.266 26.4963 121.266 26.4958C121.266 26.4953 121.266 26.4948 121.266 26.4943C121.266 26.4938 121.266 26.4933 121.266 26.4928C121.266 26.4924 121.266 26.4919 121.266 26.4914C121.266 26.4909 121.266 26.4904 121.266 26.4899C121.266 26.4894 121.266 26.4889 121.266 26.4884C121.266 26.4879 121.266 26.4874 121.266 26.487C121.266 26.4865 121.266 26.486 121.266 26.4855C121.266 26.485 121.266 26.4845 121.266 26.484H113.266ZM113.266 27.132C113.266 27.445 113.236 27.5574 113.241 27.5383C113.25 27.5044 113.317 27.2734 113.547 26.9984C113.794 26.7032 114.087 26.5276 114.308 26.4456C114.491 26.3774 114.531 26.408 114.314 26.408V34.408C116.08 34.408 118.178 33.9285 119.681 32.1346C121.049 30.5009 121.266 28.521 121.266 27.132H113.266ZM114.314 26.408C114.042 26.408 113.863 26.3854 113.769 26.3666C113.667 26.3462 113.732 26.3442 113.89 26.4333C114.062 26.5303 114.365 26.7498 114.618 27.1561C114.881 27.5802 114.966 28.0097 114.966 28.32H106.966C106.966 30.6693 108.257 32.4416 109.96 33.4017C111.413 34.2209 113.04 34.408 114.314 34.408V26.408ZM121.658 0.811998H116.51V8.812H121.658V0.811998ZM112.588 5.59646C112.627 5.7889 112.674 6.11274 112.711 6.4777C112.75 6.85612 112.762 7.1159 112.762 7.188H120.762C120.762 6.36342 120.624 4.9842 120.433 4.02753L112.588 5.59646ZM112.762 7.188C112.762 7.60085 112.772 8.20383 112.781 8.86063C112.79 9.53865 112.798 10.3282 112.798 11.184H120.798C120.798 10.2758 120.789 9.44535 120.78 8.75537C120.771 8.04417 120.762 7.53115 120.762 7.188H112.762ZM116.625 7.18778C115.898 7.21934 115.123 7.22 114.278 7.22V15.22C115.09 15.22 116.042 15.2207 116.972 15.1802L116.625 7.18778ZM114.278 7.22C112.253 7.22 110.305 7.11879 108.397 6.91798L107.56 14.874C109.756 15.1052 111.984 15.22 114.278 15.22V7.22ZM103.978 10.896V15.18H111.978V10.896H103.978ZM107.708 19.1708C109.918 19.3207 112.061 19.396 114.278 19.396V11.396C112.248 11.396 110.286 11.3273 108.249 11.1892L107.708 19.1708ZM114.278 19.396C115.093 19.396 116.04 19.3966 117.001 19.3565L116.668 11.3635C115.901 11.3954 115.119 11.396 114.278 11.396V19.396ZM112.835 15.4163C112.871 18.0057 113.021 20.8127 113.088 22.905L121.084 22.647C121.008 20.2753 120.869 17.8263 120.834 15.3037L112.835 15.4163ZM117.68 18.8203C116.683 18.6708 115.671 18.632 114.746 18.632V26.632C115.477 26.632 116.049 26.6652 116.493 26.7317L117.68 18.8203ZM114.746 18.632C111.65 18.632 108.711 19.427 106.449 21.1963C104.107 23.0291 102.754 25.7239 102.754 28.788H110.754C110.754 28.2161 110.95 27.8329 111.379 27.4967C111.89 27.097 112.947 26.632 114.746 26.632V18.632ZM102.754 28.788C102.754 31.9261 104.117 34.6257 106.601 36.3966C108.913 38.0442 111.852 38.656 114.818 38.656V30.656C112.816 30.656 111.724 30.2238 111.245 29.8824C111.033 29.7308 110.938 29.599 110.885 29.4942C110.831 29.3864 110.754 29.1764 110.754 28.788H102.754ZM114.818 38.656C117.892 38.656 120.704 37.8759 122.797 35.9266C124.892 33.9739 125.681 31.3931 125.831 29.0015L117.846 28.5025C117.78 29.5669 117.488 29.9381 117.343 30.0734C117.194 30.2121 116.604 30.656 114.818 30.656V38.656ZM119.6 32.0674C120.77 32.8567 122.022 33.9386 123.509 35.3192L128.952 29.4568C127.415 28.0294 125.787 26.5913 124.076 25.4366L119.6 32.0674ZM129.573 34.5847L132.057 30.8047L125.372 26.4113L122.888 30.1913L129.573 34.5847ZM131.417 25.6594C129.547 23.9447 126.871 21.7472 123.247 20.2625L120.214 27.6655C122.566 28.6288 124.426 30.1033 126.011 31.5566L131.417 25.6594ZM125.723 23.7291C125.579 21.2687 125.404 18.4646 125.333 15.0615L117.335 15.2265C117.409 18.8074 117.594 21.7633 117.737 24.1989L125.723 23.7291ZM121.624 19.1335C123.711 18.9817 125.679 18.7545 127.492 18.4901L126.337 10.5739C124.694 10.8135 122.918 11.0183 121.044 11.1545L121.624 19.1335ZM130.914 14.532V10.032H122.914V14.532H130.914ZM126.099 6.11608C124.517 6.44555 122.796 6.71058 120.972 6.87643L121.696 14.8436C123.832 14.6494 125.856 14.3384 127.73 13.9479L126.099 6.11608ZM125.333 10.9509C125.369 9.36064 125.405 8.07316 125.438 7.33363L117.446 6.97037C117.408 7.81483 117.371 9.19136 117.335 10.7691L125.333 10.9509ZM125.438 7.33363C125.471 6.62291 125.533 5.91954 125.609 5.43585L117.707 4.18814C117.568 5.07245 117.486 6.09709 117.446 6.97037L125.438 7.33363ZM104.437 1.22304L99.4689 0.791036L98.7758 8.76096L103.744 9.19296L104.437 1.22304ZM95.1243 4.65106C95.096 5.55739 94.947 6.72744 94.8025 7.73831L102.722 8.86969C102.866 7.86456 103.077 6.29861 103.12 4.90094L95.1243 4.65106ZM94.8025 7.73831C94.4254 10.3783 93.2863 17.525 93.2863 23.316H101.286C101.286 18.235 102.307 11.7737 102.722 8.86968L94.8025 7.73831ZM93.2863 23.316C93.2863 28.542 94.0113 33.0397 94.895 35.9854L102.558 33.6866C101.929 31.5923 101.286 27.882 101.286 23.316H93.2863ZM99.0439 38.8234L103.112 38.4994L102.477 30.5246L98.4088 30.8486L99.0439 38.8234ZM106.784 34.227C106.747 33.7134 106.722 33.2346 106.722 33.036H98.7223C98.7223 33.5574 98.7692 34.3026 98.8045 34.797L106.784 34.227ZM106.722 33.036C106.722 33.0449 106.722 33.0077 106.728 32.9199C106.733 32.8388 106.741 32.7402 106.751 32.6342C106.762 32.5281 106.775 32.4268 106.787 32.3392C106.801 32.2473 106.811 32.1959 106.814 32.1821L98.9911 30.5059C98.8192 31.3082 98.7223 32.3826 98.7223 33.036H106.722ZM106.807 32.2117C107.186 30.5063 108.271 27.0216 109.28 24.0686L101.709 21.4834C100.701 24.4344 99.4826 28.2937 98.9976 30.4763L106.807 32.2117ZM108.03 19.6824L105.834 17.8824L100.763 24.0696L102.959 25.8696L108.03 19.6824ZM99.6387 19.3614C99.2072 20.3395 98.4494 21.8891 97.9286 23.2913L105.428 26.0767C105.843 24.9589 106.31 24.0605 106.958 22.5906L99.6387 19.3614ZM105.634 24.0906C105.569 23.6545 105.534 22.9796 105.534 22.344H97.5343C97.5343 23.1484 97.572 24.2735 97.7226 25.2774L105.634 24.0906ZM105.534 22.344C105.534 19.1465 106.661 11.541 107.166 9.28589L99.359 7.53811C98.7839 10.107 97.5343 18.3414 97.5343 22.344H105.534ZM107.208 9.06959C107.236 8.89971 107.342 8.39724 107.489 7.80714C107.559 7.52721 107.63 7.26205 107.695 7.04125C107.766 6.79654 107.805 6.69292 107.804 6.69357L100.376 3.72243C99.9334 4.83012 99.4443 6.98922 99.3168 7.75441L107.208 9.06959ZM137.714 5.82L138.21 1.85089L133.645 1.28014L133.715 5.88106L137.714 5.82ZM137.786 10.536L133.787 10.5971L133.859 15.3157L138.502 14.4715L137.786 10.536ZM140.774 10.212L140.525 6.21979L140.49 6.22196L140.455 6.22474L140.774 10.212ZM149.486 9.78L152.367 12.5552L159.239 5.42272L149.341 5.78264L149.486 9.78ZM132.962 23.64L130.528 20.466L127.001 23.1709L130.062 26.3942L132.962 23.64ZM136.346 27.204L133.446 29.9582L136.298 32.9628L139.201 30.0061L136.346 27.204ZM140.558 30.264L141.074 26.2974L135.14 25.5262L136.696 31.3039L140.558 30.264ZM141.818 34.944L137.956 35.9839L138.688 38.7033L141.495 38.9309L141.818 34.944ZM147.29 16.404L144.873 13.2172L148.45 20.2321L147.29 16.404ZM155.966 9.708L153.803 6.34329L153.691 6.41537L153.584 6.49475L155.966 9.708ZM157.946 8.484L159.889 11.9806L163.928 9.73688L161.129 6.06091L157.946 8.484ZM155.534 5.316L158.717 2.89291L157.099 0.768036L154.516 1.4477L155.534 5.316ZM152.942 5.712L153.188 9.70445L153.238 9.70134L153.289 9.69696L152.942 5.712ZM133.715 5.88106L133.787 10.5971L141.786 10.4749L141.714 5.75894L133.715 5.88106ZM138.502 14.4715C139.054 14.3712 140.124 14.2768 141.093 14.1993L140.455 6.22474C139.624 6.29122 138.103 6.41285 137.071 6.60052L138.502 14.4715ZM141.024 14.2042C142.72 14.0982 147.689 13.848 149.632 13.7774L149.341 5.78264C147.324 5.85599 142.285 6.10977 140.525 6.21979L141.024 14.2042ZM146.606 7.00476C144.003 9.70679 135.349 16.7686 130.528 20.466L135.397 26.814C140.152 23.1674 149.282 15.7572 152.367 12.5552L146.606 7.00476ZM130.062 26.3942L133.446 29.9582L139.247 24.4498L135.863 20.8858L130.062 26.3942ZM139.201 30.0061C143.135 25.9986 145.982 23.716 149.702 23.716V15.716C142.263 15.716 137.262 20.5614 133.492 24.4019L139.201 30.0061ZM149.702 23.716C151.099 23.716 151.872 24.0796 152.192 24.3217C152.446 24.5142 152.434 24.6136 152.434 24.684H160.434C160.434 21.9104 159.109 19.5258 157.023 17.9453C155.003 16.4144 152.409 15.716 149.702 15.716V23.716ZM152.434 24.684C152.434 24.9781 152.367 25.0816 152.289 25.1749C152.163 25.3256 151.796 25.6546 150.902 25.971C149.038 26.6301 145.796 26.911 141.074 26.2974L140.043 34.2306C145.293 34.913 149.988 34.7799 153.57 33.513C155.398 32.8664 157.13 31.8544 158.423 30.3108C159.763 28.7099 160.434 26.7659 160.434 24.684H152.434ZM136.696 31.3039L137.956 35.9839L145.681 33.9041L144.421 29.2241L136.696 31.3039ZM141.495 38.9309C148.496 39.4985 154.314 38.7619 158.538 36.402C163.072 33.8691 165.366 29.679 165.366 24.72H157.366C157.366 26.889 156.547 28.3509 154.636 29.418C152.417 30.6581 148.461 31.4695 142.142 30.9571L141.495 38.9309ZM165.366 24.72C165.366 16.8319 158.557 11.936 150.71 11.936V19.936C155.536 19.936 157.366 22.5281 157.366 24.72H165.366ZM150.71 11.936C149.573 11.936 147.819 12.0642 146.13 12.5759L148.45 20.2321C149.138 20.0238 150.048 19.936 150.71 19.936V11.936ZM149.708 19.5908C153.052 17.054 156.211 14.5057 158.349 12.9212L153.584 6.49475C151.545 8.00633 147.793 11.002 144.873 13.2172L149.708 19.5908ZM158.129 13.0727C158.691 12.7114 159.383 12.2618 159.889 11.9806L156.004 4.98737C155.214 5.4262 154.249 6.05663 153.803 6.34329L158.129 13.0727ZM161.129 6.06091L158.717 2.89291L152.352 7.73908L154.764 10.9071L161.129 6.06091ZM154.516 1.4477C154.167 1.53973 153.357 1.66085 152.596 1.72704L153.289 9.69696C154.184 9.61914 155.534 9.45226 156.552 9.1843L154.516 1.4477ZM152.697 1.71955C150.493 1.85515 142.577 1.964 140.63 1.964V9.964C142.572 9.964 150.712 9.85685 153.188 9.70445L152.697 1.71955ZM140.63 1.964C139.556 1.964 138.577 1.89671 138.21 1.85089L137.218 9.78911C138.004 9.88729 139.329 9.964 140.63 9.964V1.964Z" fill="#615054"/>
</g>
<defs>
<filter id="filter0_d" x="0.614136" y="0.424744" width="168.752" height="46.6883" filterUnits="userSpaceOnUse" color-interpolation-filters="sRGB">
<feFlood flood-opacity="0" result="BackgroundImageFix"/>
<feColorMatrix in="SourceAlpha" type="matrix" values="0 0 0 0 0 0 0 0 0 0 0 0 0 0 0 0 0 0 127 0"/>
<feOffset dy="4"/>
<feGaussianBlur stdDeviation="2"/>
<feColorMatrix type="matrix" values="0 0 0 0 0 0 0 0 0 0 0 0 0 0 0 0 0 0 0.25 0"/>
<feBlend mode="normal" in2="BackgroundImageFix" result="effect1_dropShadow"/>
<feBlend mode="normal" in="SourceGraphic" in2="effect1_dropShadow" result="shape"/>
</filter>
</defs>
</svg>
